<?xml version="1.0" encoding="UTF-8"?> <svg xmlns="http://www.w3.org/2000/svg" width="153" height="152" viewBox="0 0 153 152" fill="none"> <path d="M58.6873 149.595L62.3904 137.552L60.429 136.949L59.1594 141.078L56.8195 140.358C53.9634 139.48 51.4001 139.671 50.4584 142.734C49.5168 145.796 51.53 147.395 54.386 148.273L58.6873 149.595ZM52.4542 143.348C52.9938 141.593 54.5144 141.608 56.1661 142.116L58.6092 142.867L57.2761 147.203L54.833 146.452C53.1641 145.939 51.9146 145.102 52.4542 143.348Z" fill="#F29304"></path> <path d="M46.1811 131.357L43.7563 133.017L38.4752 129.549L39.0343 126.664L37.2288 125.479L34.7511 138.925L36.6318 140.16L48.0017 132.553L46.1811 131.357ZM37.3766 137.419C37.2078 137.545 37.0389 137.671 36.7957 137.878C36.8884 137.573 36.9369 137.368 36.9854 137.163L38.089 131.449L42.1815 134.136L37.3766 137.419Z" fill="#F29304"></path> <path d="M24.7433 123.987L22.4425 125.921L17.9827 120.617L16.5361 121.833L22.3164 128.708L31.9605 120.6L28.6475 116.659C27.1069 114.827 24.9782 113.442 22.6085 115.434C20.225 117.438 21.2102 119.785 22.7509 121.617L24.7433 123.987ZM29.2071 120.234L26.1761 122.782L24.1605 120.385C23.3033 119.365 22.6158 118.156 23.9522 117.032C25.2748 115.92 26.3227 116.803 27.1915 117.836L29.2071 120.234Z" fill="#F29304"></path> <path d="M15.9305 109.712C18.9967 108.413 21.0975 105.158 19.3635 101.064C17.6364 96.9865 13.8297 96.214 10.7634 97.5128C7.69713 98.8116 5.60337 102.083 7.3304 106.161C9.06446 110.255 12.8642 111.01 15.9305 109.712ZM11.5778 99.4355C13.7988 98.4947 16.3965 98.9973 17.59 101.815C18.7765 104.616 17.3371 106.848 15.1161 107.789C12.8951 108.73 10.2903 108.211 9.10387 105.409C7.91039 102.592 9.3568 100.376 11.5778 99.4355Z" fill="#F29304"></path> <path d="M2.69365 90.746L4.57052 90.5236L4.07931 86.3766L14.715 85.1168L14.4736 83.0791L3.83794 84.3389L3.34884 80.2097L1.47196 80.4321L2.69365 90.746Z" fill="#F29304"></path> <path d="M14.1852 71.6504L11.6752 70.1231L12.663 63.8828L15.5221 63.2055L15.8598 61.0721L2.58455 64.3467L2.23275 66.569L13.8447 73.8016L14.1852 71.6504ZM5.03745 66.12C4.85314 66.0179 4.66883 65.9159 4.38067 65.7791C4.69698 65.7381 4.9038 65.6979 5.11062 65.6578L10.7726 64.3125L10.0071 69.1483L5.03745 66.12Z" fill="#F29304"></path> <path d="M6.77606 48.9047L18.1772 54.2688L21.9168 46.3206L20.2229 45.5236L17.3569 51.6151L14.1483 50.1055L16.7384 44.6004L15.0445 43.8034L12.4544 49.3085L9.34353 47.8449L12.1635 41.8512L10.4696 41.0542L6.77606 48.9047Z" fill="#F29304"></path> <path d="M24.4699 22.6423L26.5206 31.0577L17.9701 29.6745L16.7116 31.0359L25.9645 39.5884L27.3573 38.0815L20.8671 32.0826L27.9689 33.2299L28.7998 32.331L27.1114 25.3534L33.5884 31.3402L34.9812 29.8333L25.7284 21.2808L24.4699 22.6423Z" fill="#F29304"></path> <path d="M45.8409 8.2182L50.2022 20.0393L55.2346 18.1827C57.1091 17.4911 59.5086 15.9343 58.518 13.2492C57.8388 11.4085 56.2732 11.0652 55.0972 11.1537C55.9752 10.4653 56.5249 9.30317 55.9953 7.86774C55.2539 5.85815 53.3051 5.46435 50.8396 6.37399L45.8409 8.2182ZM56.4843 13.7693C57.0886 15.4074 55.743 16.0765 54.4258 16.5625L51.5043 17.6403L50.1772 14.0433L53.3689 12.8658C54.4328 12.4733 55.9048 12.1988 56.4843 13.7693ZM54.1485 8.89445C54.5722 10.0428 53.8347 10.8521 52.7202 11.2633L49.5729 12.4053L48.3829 9.17977L51.2537 8.1206C52.6723 7.59725 53.7124 7.71233 54.1485 8.89445Z" fill="#F29304"></path> <path d="M89.6431 2.91366L84.0399 9.51882L80.1335 1.78806L78.2923 1.57014L76.8113 14.0828L78.8491 14.324L79.8879 5.54726L83.1338 11.9673L84.3493 12.1112L89.0022 6.64418L87.9654 15.403L90.0032 15.6442L91.4842 3.13159L89.6431 2.91366Z" fill="#F29304"></path> <path d="M99.9818 11.9923C98.5402 14.9941 99.1166 18.8252 103.124 20.7498C107.116 22.6667 110.483 20.7291 111.924 17.7273C113.366 14.7255 112.773 10.8866 108.781 8.96976C104.774 7.04511 101.423 8.9905 99.9818 11.9923ZM110.042 16.8234C108.998 18.9977 106.717 20.3383 103.958 19.0137C101.216 17.6968 100.82 15.0705 101.864 12.8962C102.908 10.7219 105.206 9.38908 107.948 10.7059C110.706 12.0306 111.086 14.6491 110.042 16.8234Z" fill="#F29304"></path> <path d="M118.607 22.5732C115.698 25.7429 116.825 29.6398 119.234 31.8326C120.219 32.7291 121.357 33.3508 122.494 33.6795L123.863 32.1751C122.827 32.0838 121.731 31.5493 120.772 30.677C118.989 29.0537 118.067 26.2683 120.151 23.9785C122.406 21.5277 125.213 22.16 126.997 23.7834C127.876 24.5829 128.523 25.61 128.763 26.6563L130.108 25.1786C129.673 24.0523 128.948 23.0034 128.016 22.1553C125.567 19.9262 121.623 19.2583 118.607 22.5732Z" fill="#F29304"></path> <path d="M127.7 41.3099L132.328 38.424L133.661 40.5623L131.043 46.6709L132.272 48.6413L135.374 41.4036L142.792 41.6993L141.563 39.7289L135.246 39.5317L133.932 37.4239L138.391 34.6428L137.306 32.9016L126.614 39.5687L127.7 41.3099Z" fill="#F29304"></path> <path d="M147.116 51.631L134.988 55.0503L136.444 60.213C136.986 62.136 138.35 64.6503 141.104 63.8737C142.993 63.3412 143.458 61.8074 143.462 60.628C144.079 61.5574 145.195 62.1967 146.667 61.7815C148.729 61.2002 149.275 59.2884 148.561 56.759L147.116 51.631ZM140.746 61.8054C139.065 62.2792 138.504 60.8852 138.123 59.5339L137.278 56.5368L140.968 55.4963L141.891 58.7707C142.199 59.8621 142.357 61.3511 140.746 61.8054ZM145.789 59.8598C144.611 60.1919 143.862 59.3932 143.54 58.2498L142.648 55.0225L145.957 54.0895L146.788 57.0347C147.198 58.49 147.002 59.5178 145.789 59.8598Z" fill="#F29304"></path> <path d="M151.274 72.2654L138.674 72.2643L138.673 81.0483L140.545 81.0484L140.546 74.3164L144.092 74.3167L144.091 80.4007L145.963 80.4009L145.964 74.3169L149.402 74.3172L149.401 80.9412L151.273 80.9414L151.274 72.2654Z" fill="#F29304"></path> <path d="M130.499 108.017L141.899 113.383L142.719 111.641L137.271 101.576C137.654 101.776 138.093 101.983 138.517 102.182L145.601 105.517L146.475 103.66L135.075 98.2943L134.255 100.037L139.703 110.102C139.32 109.901 138.88 109.694 138.473 109.503L131.372 106.161L130.499 108.017Z" fill="#F29304"></path> <path d="M118.276 138.949L117.705 130.306L125.89 133.14L127.364 132.016L119.721 121.998L118.089 123.243L123.45 130.27L116.652 127.917L115.679 128.66L116.141 135.824L110.791 128.811L109.16 130.056L116.802 140.073L118.276 138.949Z" fill="#F29304"></path> <path d="M104.534 139.622C103.481 136.463 100.401 134.113 96.1833 135.519C91.9827 136.92 90.913 140.654 91.9664 143.813C93.0197 146.972 96.1165 149.317 100.317 147.916C104.535 146.51 105.587 142.781 104.534 139.622ZM93.9471 143.152C93.1841 140.864 93.8897 138.314 96.7925 137.346C99.6783 136.384 101.79 137.995 102.553 140.283C103.316 142.571 102.594 145.127 99.7079 146.089C96.805 147.057 94.7101 145.441 93.9471 143.152Z" fill="#F29304"></path> </svg> 