<?xml version="1.0" encoding="UTF-8"?> <svg xmlns="http://www.w3.org/2000/svg" width="36" height="58" viewBox="0 0 36 58" fill="none"> <path d="M32.6325 26.5556C30.9439 25.4293 29.9355 23.5452 29.9355 21.5161V13.0968H30.871C31.9028 13.0968 32.7419 12.2576 32.7419 11.2258V9.50639C32.7419 9.30432 32.7092 9.10506 32.6456 8.91516L30.1001 1.27881C29.8457 0.513581 29.1319 0 28.3255 0H0V7.35103L5.48381 8.19484C5.39119 8.97316 5.24994 9.75429 5.05348 10.5429C4.25458 13.7376 2.60158 16.6563 0.274097 18.9838L0 19.2579V22.4516H2.16284C4.61568 22.4516 6.95907 21.2804 8.43152 19.3168C8.98626 18.5768 9.40255 17.7536 9.66823 16.8668L11.9705 9.19206L12.4765 9.26971L14.0323 12.3821V17.3869L11.3147 20.1045C10.0508 21.3683 9.35484 23.0485 9.35484 24.8352C9.35484 25.8689 9.599 26.9036 10.0611 27.8269L10.9498 29.6043C11.1304 29.9654 11.2258 30.3695 11.2258 30.7737C11.2258 31.6811 10.7665 32.5109 9.99658 32.9917L7.2921 34.6821C5.06845 36.0713 3.74194 38.4662 3.74194 41.0864C3.74194 41.8517 3.85794 42.6094 4.08526 43.3391L7.84684 55.3732C8.33703 56.9448 9.77206 58 11.4185 58H31.8065C33.8701 58 35.5484 56.3217 35.5484 54.2581V32.0038C35.5484 29.8092 34.4576 27.7726 32.6325 26.5556ZM28.0645 16.8387H25.2581V13.0968H28.0645V16.8387ZM15.9032 13.0968H18.7097V16.8387H15.9032V13.0968ZM20.5806 13.0968H23.3871V16.8387H20.5806V13.0968ZM1.87097 5.74574V1.87097H5.6129V6.06755C5.6129 6.15174 5.60636 6.23594 5.60542 6.32013L1.87097 5.74574ZM7.87584 16.3298C7.67378 17.0052 7.35665 17.632 6.93474 18.1952C5.81403 19.6882 4.03007 20.5806 2.16284 20.5806H1.87097V20.0268C4.29481 17.5066 6.01984 14.3905 6.88516 10.9274C7.08629 10.1219 7.2369 9.30339 7.337 8.47923L10.1032 8.90487L7.87584 16.3298ZM7.46703 6.60639C7.47171 6.42677 7.48387 6.24716 7.48387 6.06755V1.87097H28.3255L30.871 9.50639V11.2258H15.5459L13.717 7.56806L7.46703 6.60639ZM33.6774 54.2581C33.6774 55.2899 32.8383 56.129 31.8065 56.129H11.4185C10.5962 56.129 9.87871 55.6014 9.63268 54.8165L5.8711 42.7815C5.6999 42.2324 5.6129 41.6627 5.6129 41.0864C5.6129 39.1144 6.61106 37.3136 8.28371 36.2687L10.9882 34.5783C12.3082 33.7532 13.0968 32.3313 13.0968 30.7737C13.0968 30.0805 12.9331 29.3873 12.6234 28.7671L11.7347 26.9896C11.4017 26.3245 11.2258 25.5799 11.2258 24.8352C11.2258 23.548 11.7272 22.3384 12.6375 21.4273L15.355 18.7097H28.0645V21.5161C28.0645 24.1729 29.3845 26.6388 31.5941 28.1122C32.8982 28.9813 33.6774 30.436 33.6774 32.0038V54.2581Z" fill="#F29304"></path> <path d="M15.0822 25.3207C15.0064 25.1692 14.9672 25.0008 14.9672 24.8352C14.9672 24.5518 15.0822 24.2739 15.2824 24.0737L18.2741 21.0821L16.9513 19.7593L13.9596 22.751C13.4105 23.2991 13.0962 24.0588 13.0962 24.8352C13.0962 25.288 13.2038 25.7445 13.4077 26.1561L14.2955 27.9298L15.9681 27.0916L15.0822 25.3207Z" fill="#F29304"></path> <rect x="14" y="36" width="21" height="2" fill="#F29304"></rect> <rect x="14" y="47" width="21" height="2" fill="#F29304"></rect> <rect x="14" y="49" width="13" height="2" transform="rotate(-90 14 49)" fill="#F29304"></rect> </svg> 