<?xml version="1.0" encoding="UTF-8"?> <svg xmlns="http://www.w3.org/2000/svg" width="63" height="63" viewBox="0 0 63 63" fill="none"> <path d="M46.3134 25.6014C46.5939 24.8911 46.7422 24.1432 46.7422 23.371C46.7422 20.0086 44.0078 17.2742 40.6454 17.2742C40.5245 17.2742 40.4077 17.2874 40.2878 17.2945C39.4434 14.8893 37.1561 13.2097 34.5487 13.2097C33.4624 13.2097 32.428 13.5033 31.5064 14.0388C30.6 13.5125 29.5544 13.2097 28.4519 13.2097C25.8445 13.2097 23.5572 14.8893 22.7128 17.2945C22.5929 17.2874 22.476 17.2742 22.3551 17.2742C18.9927 17.2742 16.2583 20.0086 16.2583 23.371C16.2583 24.1432 16.4067 24.8911 16.6871 25.6014C15.1975 26.713 14.2261 28.4851 14.2261 30.4839H48.7745C48.7745 28.4851 47.8031 26.713 46.3134 25.6014Z" fill="#F29304"></path> <path d="M36.5804 56.9032H19.3062V58.9355H36.5804V56.9032Z" fill="#F29304"></path> <path d="M43.693 56.9032H38.6123V58.9355H43.693V56.9032Z" fill="#F29304"></path> <path d="M47.7575 29.4677H26.4187V28.4516H24.3865V29.4677H15.2413C13.9183 29.4677 12.8006 30.3203 12.3799 31.5H8.12842V32.5161C8.12842 38.8913 11.8261 44.4069 17.1821 47.0691L18.1535 60.1772C18.2694 61.7603 19.6056 63 21.1928 63H41.805C43.3922 63 44.7284 61.7603 44.8452 60.1772L45.8167 47.0691C51.1727 44.4069 54.8704 38.8913 54.8704 32.5161V31.5H50.6189C50.1982 30.3203 49.0805 29.4677 47.7575 29.4677ZM15.2413 31.5H47.7575C48.3174 31.5 48.7736 31.9562 48.7736 32.5161C48.7736 33.076 48.3174 33.5323 47.7575 33.5323H15.2413C14.6814 33.5323 14.2252 33.076 14.2252 32.5161C14.2252 31.9562 14.6814 31.5 15.2413 31.5ZM26.4187 44.7097V46.7419H24.3865C22.527 46.7419 20.7498 46.3812 19.1209 45.7299L18.368 35.5645H44.6319L43.8789 45.7299C42.249 46.3812 40.4718 46.7419 38.6123 46.7419H36.58V44.7097H26.4187ZM34.5478 46.7419V48.7742H28.451V46.7419H34.5478ZM10.1962 33.5323H12.3799C12.8006 34.712 13.9183 35.5645 15.2413 35.5645H16.3306L17.0043 44.6599C13.1796 42.3258 10.5316 38.2471 10.1962 33.5323ZM42.8191 60.0268C42.7805 60.5542 42.3354 60.9678 41.806 60.9678H21.1928C20.6634 60.9678 20.2183 60.5542 20.1787 60.0268L19.2835 47.942C20.891 48.4744 22.6032 48.7742 24.3865 48.7742H26.4187V50.8065H36.58V48.7742H38.6123C40.3956 48.7742 42.1078 48.4744 43.7143 47.942L42.8191 60.0268ZM45.9945 44.6599L46.6682 35.5645H47.7575C49.0805 35.5645 50.1982 34.712 50.6189 33.5323H52.8025C52.4672 38.2471 49.8192 42.3258 45.9945 44.6599Z" fill="#353535"></path> <path d="M41.6607 22.3548H39.6284V24.3871H41.6607V22.3548Z" fill="#353535"></path> <path d="M23.3711 21.3387H21.3389V23.371H23.3711V21.3387Z" fill="#353535"></path> <path d="M31.5 19.3064H29.4678V21.3387H31.5V19.3064Z" fill="#353535"></path> <path d="M36.5806 25.4032H34.5483V27.4355H36.5806V25.4032Z" fill="#353535"></path> <path d="M40.6456 8.12901C42.8872 8.12901 44.7101 6.30608 44.7101 4.0645C44.7101 1.82291 42.8872 -2.28882e-05 40.6456 -2.28882e-05C38.404 -2.28882e-05 36.5811 1.82291 36.5811 4.0645C36.5811 6.30608 38.404 8.12901 40.6456 8.12901ZM40.6456 2.03224C41.7664 2.03224 42.6778 2.9437 42.6778 4.0645C42.6778 5.18529 41.7664 6.09675 40.6456 6.09675C39.5248 6.09675 38.6133 5.18529 38.6133 4.0645C38.6133 2.9437 39.5248 2.03224 40.6456 2.03224Z" fill="#353535"></path> <path d="M8.12946 17.2742C10.371 17.2742 12.194 15.4512 12.194 13.2097C12.194 10.9681 10.371 9.14514 8.12946 9.14514C5.88788 9.14514 4.06494 10.9681 4.06494 13.2097C4.06494 15.4512 5.88788 17.2742 8.12946 17.2742ZM8.12946 11.1774C9.25025 11.1774 10.1617 12.0889 10.1617 13.2097C10.1617 14.3305 9.25025 15.2419 8.12946 15.2419C7.00867 15.2419 6.0972 14.3305 6.0972 13.2097C6.0972 12.0889 7.00867 11.1774 8.12946 11.1774Z" fill="#353535"></path> <path d="M58.9361 21.3387C56.6945 21.3387 54.8716 23.1616 54.8716 25.4032C54.8716 27.6448 56.6945 29.4677 58.9361 29.4677C61.1777 29.4677 63.0006 27.6448 63.0006 25.4032C63.0006 23.1616 61.1777 21.3387 58.9361 21.3387ZM58.9361 27.4355C57.8153 27.4355 56.9038 26.524 56.9038 25.4032C56.9038 24.2824 57.8153 23.371 58.9361 23.371C60.0569 23.371 60.9684 24.2824 60.9684 25.4032C60.9684 26.524 60.0569 27.4355 58.9361 27.4355Z" fill="#353535"></path> <path d="M53.8545 17.2742C55.5352 17.2742 56.9029 15.9065 56.9029 14.2258C56.9029 12.5451 55.5352 11.1774 53.8545 11.1774C52.1739 11.1774 50.8062 12.5451 50.8062 14.2258C50.8062 15.9065 52.1739 17.2742 53.8545 17.2742ZM53.8545 13.2097C54.4144 13.2097 54.8707 13.6659 54.8707 14.2258C54.8707 14.7857 54.4144 15.2419 53.8545 15.2419C53.2947 15.2419 52.8384 14.7857 52.8384 14.2258C52.8384 13.6659 53.2947 13.2097 53.8545 13.2097Z" fill="#353535"></path> <path d="M3.04839 23.371C1.36771 23.371 0 24.7387 0 26.4193C0 28.1 1.36771 29.4677 3.04839 29.4677C4.72907 29.4677 6.09678 28.1 6.09678 26.4193C6.09678 24.7387 4.72907 23.371 3.04839 23.371ZM3.04839 27.4355C2.4885 27.4355 2.03226 26.9792 2.03226 26.4193C2.03226 25.8595 2.4885 25.4032 3.04839 25.4032C3.60828 25.4032 4.06452 25.8595 4.06452 26.4193C4.06452 26.9792 3.60828 27.4355 3.04839 27.4355Z" fill="#353535"></path> <path d="M21.3384 9.14514C23.0191 9.14514 24.3868 7.77743 24.3868 6.09675C24.3868 4.41607 23.0191 3.04836 21.3384 3.04836C19.6577 3.04836 18.29 4.41607 18.29 6.09675C18.29 7.77743 19.6577 9.14514 21.3384 9.14514ZM21.3384 5.08062C21.8983 5.08062 22.3546 5.53686 22.3546 6.09675C22.3546 6.65664 21.8983 7.11288 21.3384 7.11288C20.7785 7.11288 20.3223 6.65664 20.3223 6.09675C20.3223 5.53686 20.7785 5.08062 21.3384 5.08062Z" fill="#353535"></path> <path d="M45.7261 11.1774H43.6938V13.2097H45.7261V11.1774Z" fill="#353535"></path> <path d="M13.21 4.06449H11.1777V6.09675H13.21V4.06449Z" fill="#353535"></path> <path d="M11.1773 20.3226H9.14502V22.3548H11.1773V20.3226Z" fill="#353535"></path> <path d="M51.8223 24.3871H49.79V26.4194H51.8223V24.3871Z" fill="#353535"></path> </svg> 