<?xml version="1.0" encoding="UTF-8"?> <svg xmlns="http://www.w3.org/2000/svg" width="57" height="57" viewBox="0 0 57 57" fill="none"> <path d="M50.5643 6.43548H31.2578V22.9839H50.5643V6.43548Z" fill="#F29304"></path> <path d="M27.5804 22.9839H23.903V16.5484C23.903 16.0409 23.4911 15.629 22.9836 15.629H8.27393V6.43548H27.5804V22.9839Z" fill="#F29304"></path> <path d="M50.5643 26.6613H31.2578V43.2097H50.5643V26.6613Z" fill="#F29304"></path> <path d="M27.5809 43.2097H23.9035H20.2261V37.6935H22.9841C23.4916 37.6935 23.9035 37.2817 23.9035 36.7742V26.6613H27.5809V43.2097Z" fill="#F29304"></path> <path d="M55.1613 0H3.67742C2.66337 0 1.83871 0.824661 1.83871 1.83871V5.51613C1.83871 6.53018 2.66337 7.35484 3.67742 7.35484V14.7097H1.83871C0.824661 14.7097 0 15.5343 0 16.5484V22.9839V33.0968V44.8866C0 45.7701 0.252823 46.6306 0.731806 47.3744L1.83871 49.0945V57H16.5484V48.3461L18.73 46.6012C19.5666 45.9319 20.2001 45.0806 20.611 44.129H55.1613V7.35484C56.1753 7.35484 57 6.53018 57 5.51613V1.83871C57 0.824661 56.1753 0 55.1613 0ZM5.51613 7.35484H7.35484V14.7097H5.51613V7.35484ZM49.6452 42.2903H32.1774V27.5806H49.6452V42.2903ZM49.6452 22.0645H32.1774V7.35484H49.6452V22.0645ZM49.6452 23.9032V25.7419H30.3387V42.2903H28.5V25.7419H24.8226V23.9032H28.5V7.35484H30.3387V23.9032H49.6452ZM26.6613 22.0645H24.8226V16.5484C24.8226 15.5343 23.9979 14.7097 22.9839 14.7097H9.19355V7.35484H26.6613V22.0645ZM19.3065 41.576C19.3065 42.9798 18.6776 44.289 17.5817 45.1661L14.7097 47.4626V55.1613H3.67742V48.5539L2.27816 46.3787C1.9904 45.9328 1.83871 45.417 1.83871 44.8866V33.0968V22.9839C1.83871 22.5095 2.12371 22.093 2.51719 21.9928C2.85368 21.9073 3.11018 22.0342 3.26647 22.1565C3.52021 22.3532 3.67742 22.6695 3.67742 22.9811V33.0968H5.51613V22.9811V21.1452C5.51613 20.6386 5.92892 20.2258 6.43548 20.2258C6.94205 20.2258 7.35484 20.6386 7.35484 21.1452V33.0968H9.19355V21.1452C9.19355 20.6386 9.60634 20.2258 10.1129 20.2258C10.6195 20.2258 11.0323 20.6386 11.0323 21.1452V33.0968H12.871V21.1452C12.871 20.6386 13.2838 20.2258 13.7903 20.2258C14.2969 20.2258 14.7097 20.6386 14.7097 21.1452V28.9597V30.3387V37.6936H16.5484V30.3387V28.9597C16.5484 28.1994 17.1671 27.5806 17.9274 27.5806C18.6877 27.5806 19.3065 28.1994 19.3065 28.9597V41.576ZM17.9274 25.7419C17.4319 25.7419 16.9676 25.8642 16.5484 26.0646V21.1452C16.5484 19.6245 15.3109 18.3871 13.7903 18.3871C13.0815 18.3871 12.4407 18.6638 11.9516 19.1042C11.4625 18.6629 10.8217 18.3871 10.1129 18.3871C9.40408 18.3871 8.76329 18.6638 8.27419 19.1042C7.7851 18.6638 7.14431 18.3871 6.43548 18.3871C5.18884 18.3871 4.14629 19.2228 3.80521 20.36C3.25911 20.121 2.65234 20.0622 2.06303 20.212C1.98489 20.2313 1.91318 20.2635 1.83871 20.2902V16.5484H22.9839V36.7742H21.1452V28.9597C21.1452 27.1853 19.7018 25.7419 17.9274 25.7419ZM21.1452 41.576V38.6129H22.9839C23.9979 38.6129 24.8226 37.7882 24.8226 36.7742V27.5806H26.6613V42.2903H21.1056C21.1314 42.055 21.1452 41.8169 21.1452 41.576ZM53.3226 42.2903H51.4839V7.35484H53.3226V42.2903ZM3.67742 5.51613V1.83871H55.1613L55.1622 5.51613H3.67742Z" fill="#353535"></path> <path d="M55.1615 45.9677H53.3228V47.8065H55.1615V45.9677Z" fill="#353535"></path> <path d="M53.3226 47.8065H51.4839V49.6452H53.3226V47.8065Z" fill="#353535"></path> <path d="M55.1615 49.6452H53.3228V51.4839H55.1615V49.6452Z" fill="#353535"></path> <path d="M56.9998 47.8065H55.1611V49.6452H56.9998V47.8065Z" fill="#353535"></path> <path d="M30.3387 51.4839H28.5V53.3226H30.3387V51.4839Z" fill="#353535"></path> <path d="M28.4998 53.3226H26.6611V55.1613H28.4998V53.3226Z" fill="#353535"></path> <path d="M30.3387 55.1613H28.5V57H30.3387V55.1613Z" fill="#353535"></path> <path d="M32.1776 53.3226H30.3389V55.1613H32.1776V53.3226Z" fill="#353535"></path> <path d="M45.9676 33.0968H44.1289V34.9355H45.9676V33.0968Z" fill="#353535"></path> <path d="M44.1287 34.9355H42.29V36.7742H44.1287V34.9355Z" fill="#353535"></path> <path d="M45.9676 36.7742H44.1289V38.6129H45.9676V36.7742Z" fill="#353535"></path> <path d="M47.8065 34.9355H45.9678V36.7742H47.8065V34.9355Z" fill="#353535"></path> <path d="M37.6937 11.0323H35.855V12.871H37.6937V11.0323Z" fill="#353535"></path> <path d="M35.8548 12.871H34.0161V14.7097H35.8548V12.871Z" fill="#353535"></path> <path d="M37.6937 14.7097H35.855V16.5484H37.6937V14.7097Z" fill="#353535"></path> <path d="M39.5321 12.871H37.6934V14.7097H39.5321V12.871Z" fill="#353535"></path> </svg> 