<?xml version="1.0" encoding="UTF-8"?> <svg xmlns="http://www.w3.org/2000/svg" width="58" height="66" viewBox="0 0 58 66" fill="none"> <path d="M19.2625 6.3871H15.0044V10.6452H19.2625V6.3871Z" fill="#F29304"></path> <path d="M32.3847 45.292C32.1335 42.5327 29.8554 40.4516 27.0834 40.4516H20.5185L20.3269 39.2987V3.19355C20.3269 1.43284 18.8941 0 17.1334 0C15.3727 0 13.9398 1.43284 13.9398 3.19355V39.2987L13.7482 40.4516H7.18335C4.41135 40.4516 2.13329 42.5327 1.88313 45.292L0 66H27.7785V63.871H6.60745L8.15632 46.8387H26.1126L27.2399 59.2403L29.3604 59.0466L28.0564 44.7097H21.2286L20.8741 42.5806H27.0834C28.7462 42.5806 30.113 43.8293 30.2631 45.4857L31.119 54.895L33.2395 54.7012L32.3847 45.292ZM17.1334 2.12903C17.7199 2.12903 18.1979 2.607 18.1979 3.19355V38.3226H16.0689V3.19355C16.0689 2.607 16.5468 2.12903 17.1334 2.12903ZM6.21145 44.7097L4.46884 63.871H2.33129L4.00258 45.4857C4.15374 43.8293 5.52058 42.5806 7.18335 42.5806H13.3927L13.0382 44.7097H6.21145ZM15.196 44.7097L15.906 40.4516H18.3608L19.0708 44.7097H15.196Z" fill="#353535"></path> <path d="M57.7264 66H26.7139V61.9272C26.7139 58.8145 28.3724 55.886 31.0401 54.285C31.897 53.7719 32.6411 53.0619 33.1936 52.2315L37.1514 46.2947C38.2575 44.6362 40.1076 43.6452 42.1025 43.6452C44.1666 43.6452 46.054 44.6905 47.1483 46.4416L49.948 50.9211C50.5718 51.9186 51.4341 52.7638 52.44 53.3684C54.9874 54.8982 56.6598 57.4647 57.0281 60.4102L57.7264 66Z" fill="#F29304"></path> <path d="M44.8107 55.3548H42.6816V57.4839H44.8107V55.3548Z" fill="#353535"></path> <path d="M35.2301 59.6129H33.1011V61.7419H35.2301V59.6129Z" fill="#353535"></path> <path d="M42.6818 48.9677H40.5527V51.0968H42.6818V48.9677Z" fill="#353535"></path> <path d="M52.2623 59.6129H50.1333V61.7419H52.2623V59.6129Z" fill="#353535"></path> </svg> 