<?xml version="1.0" encoding="UTF-8"?> <svg xmlns="http://www.w3.org/2000/svg" width="497" height="497" viewBox="0 0 497 497" fill="none"> <path d="M388.842 288.639C388.93 269.919 391.578 250.935 396.698 232.191C399.498 221.927 400.922 211.303 400.922 200.599C400.922 128.823 346.266 80.5986 264.922 80.5986H224.922V80.6546C213.25 80.6466 201.762 82.2466 190.634 85.5746L195.21 100.903C208.594 96.9186 222.61 95.7026 236.794 97.2546C282.826 102.343 321.082 139.199 327.77 184.895C328.938 192.887 329.154 200.815 328.554 208.639C306.674 208.839 288.922 226.671 288.922 248.599C288.922 266.143 300.37 281.423 316.93 286.647C316.834 307.375 319.578 328.431 325.266 349.231C327.698 358.103 328.922 367.319 328.922 376.599C328.922 406.127 316.298 434.383 294.282 454.103C271.97 474.087 243.09 483.287 213.05 479.943C171.778 475.383 136.826 445.247 125.21 406.127C136.77 401.303 144.922 389.895 144.922 376.599C144.922 363.287 136.746 351.863 125.154 347.047C135.722 309.263 135.546 268.119 124.578 227.967C122.146 219.095 120.922 209.879 120.922 200.599C120.922 195.655 121.274 190.647 121.978 185.727L106.138 183.479C105.33 189.135 104.922 194.903 104.922 200.599C104.922 211.303 106.346 221.927 109.138 232.191C119.442 269.895 119.57 308.455 109.498 343.719C104.802 360.183 103.706 377.303 106.242 394.607C113.962 447.391 158.138 489.959 211.29 495.839C215.93 496.343 220.538 496.607 225.122 496.607C225.242 496.607 225.354 496.591 225.466 496.591H264.922C346.266 496.591 400.922 448.367 400.922 376.591C400.922 365.887 399.498 355.263 396.706 344.999C391.578 326.263 388.93 307.279 388.842 288.639ZM324.954 229.087C321.186 242.279 318.834 255.903 317.698 269.743C309.994 265.655 304.922 257.639 304.922 248.599C304.922 236.399 314.106 226.407 325.906 224.903C325.57 226.295 325.346 227.703 324.954 229.087ZM121.842 389.871C120.738 380.927 120.786 372.071 121.898 363.367C126.13 366.247 128.922 371.103 128.922 376.599C128.922 382.119 126.106 386.999 121.842 389.871ZM381.266 349.223C383.698 358.103 384.922 367.319 384.922 376.599C384.922 432.015 346.594 471.143 287.498 479.047C293.618 475.279 299.458 470.935 304.954 466.015C330.354 443.263 344.922 410.679 344.922 376.599C344.922 365.895 343.498 355.271 340.706 345.007C330.402 307.303 330.274 268.743 340.346 233.479C345.042 217.015 346.138 199.895 343.602 182.591C338.41 147.111 316.706 116.303 286.922 98.0946C346.338 105.815 384.922 145.007 384.922 200.599C384.922 209.879 383.698 219.095 381.266 227.975C375.77 248.063 372.938 268.447 372.842 288.639C372.938 308.759 375.77 329.135 381.266 349.223Z" fill="#353535"></path> <path d="M216.922 296.599V280.599C199.274 280.599 184.922 294.951 184.922 312.599C184.922 330.247 199.274 344.599 216.922 344.599C234.57 344.599 248.922 330.247 248.922 312.599H232.922C232.922 321.423 225.746 328.599 216.922 328.599C208.098 328.599 200.922 321.423 200.922 312.599C200.922 303.775 208.098 296.599 216.922 296.599Z" fill="#353535"></path> <path d="M224.922 432.599C207.274 432.599 192.922 446.951 192.922 464.599H208.922C208.922 455.775 216.098 448.599 224.922 448.599C233.746 448.599 240.922 455.775 240.922 464.599H256.922C256.922 446.951 242.57 432.599 224.922 432.599Z" fill="#353535"></path> <path d="M240.922 128.599C227.69 128.599 216.922 139.367 216.922 152.599C216.922 165.831 227.69 176.599 240.922 176.599C254.154 176.599 264.922 165.831 264.922 152.599C264.922 139.367 254.154 128.599 240.922 128.599ZM240.922 160.599C236.506 160.599 232.922 157.015 232.922 152.599C232.922 148.183 236.506 144.599 240.922 144.599C245.338 144.599 248.922 148.183 248.922 152.599C248.922 157.015 245.338 160.599 240.922 160.599Z" fill="#353535"></path> <path d="M264.922 264.599H248.922V280.599H264.922V264.599Z" fill="#353535"></path> <path d="M296.922 368.599H280.922V384.599H296.922V368.599Z" fill="#353535"></path> <path d="M304.922 176.599H288.922V192.599H304.922V176.599Z" fill="#353535"></path> <path d="M136.922 200.599C116.282 200.599 98.3459 187.487 91.7139 168.511C64.0819 170.271 40.9299 147.999 40.9219 120.599C40.9219 109.167 44.9059 98.4226 52.2499 89.7746C50.0419 84.1986 48.9219 78.4386 48.9219 72.5986C48.9219 46.1266 70.4499 24.5986 96.9219 24.5986C115.154 24.5986 131.33 34.7666 139.418 50.6306C143.842 49.2786 148.362 48.5986 152.922 48.5986C179.394 48.5986 200.922 70.1266 200.922 96.5986C200.922 111.911 193.626 126.031 181.458 134.999C183.746 140.647 184.922 146.615 184.922 152.599C184.922 179.071 163.394 200.599 136.922 200.599Z" fill="#F29304"></path> <path d="M224.922 48.5986C211.69 48.5986 200.922 37.8306 200.922 24.5986C200.922 11.3666 211.69 0.598633 224.922 0.598633C238.154 0.598633 248.922 11.3666 248.922 24.5986C248.922 37.8306 238.154 48.5986 224.922 48.5986ZM224.922 16.5986C220.506 16.5986 216.922 20.1826 216.922 24.5986C216.922 29.0146 220.506 32.5986 224.922 32.5986C229.338 32.5986 232.922 29.0146 232.922 24.5986C232.922 20.1826 229.338 16.5986 224.922 16.5986Z" fill="#353535"></path> <path d="M456.922 160.599C434.866 160.599 416.922 142.655 416.922 120.599C416.922 98.5426 434.866 80.5986 456.922 80.5986C478.978 80.5986 496.922 98.5426 496.922 120.599C496.922 142.655 478.978 160.599 456.922 160.599ZM456.922 96.5986C443.69 96.5986 432.922 107.367 432.922 120.599C432.922 133.831 443.69 144.599 456.922 144.599C470.154 144.599 480.922 133.831 480.922 120.599C480.922 107.367 470.154 96.5986 456.922 96.5986Z" fill="#353535"></path> <path d="M32.9219 296.599C15.2739 296.599 0.921875 282.247 0.921875 264.599C0.921875 246.951 15.2739 232.599 32.9219 232.599C50.5699 232.599 64.9219 246.951 64.9219 264.599C64.9219 282.247 50.5699 296.599 32.9219 296.599ZM32.9219 248.599C24.0979 248.599 16.9219 255.775 16.9219 264.599C16.9219 273.423 24.0979 280.599 32.9219 280.599C41.7459 280.599 48.9219 273.423 48.9219 264.599C48.9219 255.775 41.7459 248.599 32.9219 248.599Z" fill="#353535"></path> <path d="M104.922 56.5986H88.9219V72.5986H104.922V56.5986Z" fill="#353535"></path> <path d="M144.922 152.599H128.922V168.599H144.922V152.599Z" fill="#353535"></path> <path d="M160.922 88.5986H144.922V104.599H160.922V88.5986Z" fill="#353535"></path> <path d="M96.9219 112.599H80.9219V128.599H96.9219V112.599Z" fill="#353535"></path> <path d="M456.922 464.599C443.69 464.599 432.922 453.831 432.922 440.599C432.922 427.367 443.69 416.599 456.922 416.599C470.154 416.599 480.922 427.367 480.922 440.599C480.922 453.831 470.154 464.599 456.922 464.599ZM456.922 432.599C452.506 432.599 448.922 436.183 448.922 440.599C448.922 445.015 452.506 448.599 456.922 448.599C461.338 448.599 464.922 445.015 464.922 440.599C464.922 436.183 461.338 432.599 456.922 432.599Z" fill="#353535"></path> <path d="M72.9219 464.599C59.6899 464.599 48.9219 453.831 48.9219 440.599C48.9219 427.367 59.6899 416.599 72.9219 416.599C86.1539 416.599 96.9219 427.367 96.9219 440.599C96.9219 453.831 86.1539 464.599 72.9219 464.599ZM72.9219 432.599C68.5059 432.599 64.9219 436.183 64.9219 440.599C64.9219 445.015 68.5059 448.599 72.9219 448.599C77.3379 448.599 80.9219 445.015 80.9219 440.599C80.9219 436.183 77.3379 432.599 72.9219 432.599Z" fill="#353535"></path> <path d="M176.922 216.599H160.922V232.599H176.922V216.599Z" fill="#353535"></path> <path d="M216.922 384.599H200.922V400.599H216.922V384.599Z" fill="#353535"></path> </svg> 