<?xml version="1.0" encoding="UTF-8"?> <svg xmlns="http://www.w3.org/2000/svg" width="69" height="48" viewBox="0 0 69 48" fill="none"> <rect x="51" y="17" width="17" height="30" rx="3" stroke="#353535" stroke-width="2"></rect> <path d="M51 22H67" stroke="#353535" stroke-width="2"></path> <path d="M51 41H67" stroke="#353535" stroke-width="2"></path> <circle cx="60" cy="44" r="1" fill="#F29304"></circle> <path d="M39 46H14L14 48H39L39 46Z" fill="#353535"></path> <path d="M1.25293 7.88577H17.3739L19.7921 11.7681H31.8828L34.301 7.88577H49.616V2.70938H1.25293V7.88577Z" fill="#F29304"></path> <path d="M0.27832 0V36.8009H51.9999V0H0.27832ZM2.6293 2.83084H49.6489V33.9701H2.6293V2.83084ZM49.6489 33.9701H51.9999V2.83084H49.6489V33.9701Z" fill="#353535"></path> <path d="M20.2618 17.3086H4.98047V20.1394H20.2618V17.3086Z" fill="#353535"></path> <path d="M24.9638 17.3086H22.6128V20.1394H24.9638V17.3086Z" fill="#353535"></path> <path d="M24.9638 22.9702H4.98047V25.8011H24.9638V22.9702Z" fill="#353535"></path> <path d="M27 36H25V46H27V36Z" fill="#353535"></path> </svg> 