<?xml version="1.0" encoding="UTF-8"?> <svg xmlns="http://www.w3.org/2000/svg" width="41" height="66" viewBox="0 0 41 66" fill="none"> <path d="M20.2259 57.4839C27.2808 57.4839 33 51.7647 33 44.7097C33 37.6547 27.2808 31.9355 20.2259 31.9355C13.1709 31.9355 7.45166 37.6547 7.45166 44.7097C7.45166 51.7647 13.1709 57.4839 20.2259 57.4839Z" fill="#F29304"></path> <path d="M39.7746 52.0889L38.3471 47.8064L39.1678 42.0654C39.3136 41.0456 39.3871 40.0056 39.3871 38.973C39.3871 35.5974 38.5887 32.2165 37.0792 29.1965C36.3245 27.6891 35.0609 26.482 33.5216 25.7975L26.6129 22.7274V19.3327L31.7886 3.80777C31.8865 3.51077 31.9355 3.20419 31.9355 2.89655C31.9355 1.29977 30.6357 0 29.0389 0H15.5611C14.025 0 12.7742 1.24974 12.7742 2.7869C12.7742 3.21697 12.8764 3.6481 13.068 4.03345L13.7131 5.32258H13.2798C11.2402 5.32258 9.58065 6.98216 9.58065 9.02178C9.58065 9.54339 9.68816 10.049 9.89894 10.5249L13.8387 19.388V22.7274L6.93 25.7986C5.39071 26.483 4.12713 27.6902 3.37239 29.1975C1.8629 32.2176 1.06452 35.5974 1.06452 38.973C1.06452 40.0056 1.13797 41.0445 1.28381 42.0644L2.10455 47.8053L0.677032 52.0878C0.227806 53.4345 0 54.8375 0 56.2565C0 58.6453 0.649355 60.9904 1.87887 63.0385C2.97426 64.8652 4.97874 66 7.10884 66H33.3438C35.4739 66 37.4784 64.8652 38.5738 63.0385C39.8023 60.9904 40.4516 58.6453 40.4516 56.2565C40.4516 54.8375 40.2238 53.4345 39.7746 52.0889ZM11.7097 9.02178C11.7097 8.15632 12.4133 7.45161 13.2798 7.45161H14.7776L17.1451 12.1855L19.0495 11.2328L14.9735 3.08071C14.9266 2.99023 14.9032 2.88803 14.9032 2.7869C14.9032 2.4239 15.1981 2.12903 15.5611 2.12903H25.1907L23.463 8.00303L25.5047 8.60342L27.4092 2.12903H29.0389C29.4626 2.12903 29.8065 2.47287 29.8065 2.89655C29.8065 2.97852 29.7926 3.06261 29.7681 3.13926L24.7819 18.0968H22.7125L24.503 12.0099L22.4613 11.4095L20.4941 18.0968H15.5952L11.8449 9.65942C11.7555 9.45823 11.7097 9.24319 11.7097 9.02178ZM24.4839 20.2258V22.3548H15.9677V20.2258H24.4839ZM36.7482 61.9421C36.0349 63.1322 34.7298 63.871 33.3428 63.871H7.10884C5.72177 63.871 4.41774 63.1322 3.70452 61.9421C2.67406 60.2261 2.12903 58.2599 2.12903 56.2565C2.12903 55.0664 2.32064 53.8911 2.69535 52.7627L3.39048 50.6784L4.49652 52.8905L7.92532 55.176L9.10587 53.4046L6.14758 51.4321L4.22293 47.5817L3.39155 41.7631C3.25955 40.8434 3.19355 39.9045 3.19355 38.973C3.19355 35.9264 3.91423 32.8744 5.27681 30.1492C5.81013 29.0826 6.70539 28.2278 7.79439 27.7434L15.1289 24.4839H25.3227L32.6572 27.7434C33.7462 28.2288 34.6415 29.0826 35.1748 30.1492C36.5374 32.8755 37.2581 35.9264 37.2581 38.973C37.2581 39.9045 37.1921 40.8434 37.059 41.7631L36.6854 44.3776L35.129 41.2649V37.2581H33V41.7674L36.2723 48.3131L37.7552 52.7627C38.131 53.8911 38.3226 55.0664 38.3226 56.2565C38.3226 58.2599 37.7776 60.2261 36.7482 61.9421Z" fill="#353535"></path> <path fill-rule="evenodd" clip-rule="evenodd" d="M16 38H26V46.5H18V52H16V46.5H14.5V44.5H16V38ZM18 44.5H24V40H18V44.5Z" fill="#353535"></path> <path fill-rule="evenodd" clip-rule="evenodd" d="M20.5 50H14V48H20.5V50Z" fill="#353535"></path> </svg> 