<?xml version="1.0" encoding="UTF-8"?> <svg xmlns="http://www.w3.org/2000/svg" width="56" height="70" viewBox="0 0 56 70" fill="none"> <path d="M51.5403 7.04629C51.2061 6.75839 43.2126 0 33.871 0C24.5294 0 16.5358 6.75839 16.2016 7.04629L15.4102 7.72484L17.7506 10.9437C22.3876 17.3194 24.8387 24.8568 24.8387 32.7419H27.0968C27.0968 24.3769 24.4955 16.3789 19.5763 9.61484L18.489 8.12C19.8281 7.11855 22.7026 5.16081 26.2997 3.78339C27.5823 6.39597 28.6311 9.1271 29.3955 11.9339L31.5745 11.3411C30.8011 8.49484 29.7455 5.72307 28.4618 3.06532C30.1756 2.57645 32.0002 2.25806 33.871 2.25806C35.7418 2.25806 37.5663 2.57645 39.2813 3.06419C37.9976 5.72419 36.9419 8.4971 36.1685 11.34L38.3476 11.9327C39.1097 9.12936 40.1585 6.39823 41.4423 3.78226C45.0394 5.15968 47.915 7.11742 49.2529 8.11887L48.1656 9.61371C43.2464 16.3789 40.6452 24.3769 40.6452 32.7419H42.9032C42.9032 24.8568 45.3544 17.3194 49.9913 10.9426L52.3318 7.72371L51.5403 7.04629Z" fill="#353535"></path> <path d="M44.032 45.1613H43.2586C43.3851 44.8068 43.4664 44.4297 43.4664 44.0323C43.4664 42.1648 41.9467 40.6452 40.0793 40.6452H38.3868V37.2581H36.1288V40.6452H31.6126V37.2581H29.3546V40.6452H27.757L23.2409 45.1613H6.77393L6.77506 62.0968H18.7259L22.113 65.4839H29.3546V70H38.3868V65.4839H44.032C45.8994 65.4839 47.4191 63.9642 47.4191 62.0968C47.4191 61.2263 47.0793 60.4393 46.5385 59.8387C47.0804 59.2381 47.4191 58.4511 47.4191 57.5806C47.4191 56.7102 47.0793 55.9232 46.5385 55.3226C47.0804 54.7219 47.4191 53.935 47.4191 53.0645C47.4191 52.194 47.0793 51.4071 46.5385 50.8064C47.0804 50.2058 47.4191 49.4189 47.4191 48.5484C47.4191 46.681 45.8994 45.1613 44.032 45.1613ZM45.161 48.5484C45.161 49.1705 44.6552 49.6774 44.032 49.6774H31.6126C31.1272 49.6774 30.7218 49.3669 30.5626 48.9368L32.0789 47.4193H39.5159H40.0793H44.032C44.6552 47.4193 45.161 47.9263 45.161 48.5484ZM45.161 53.0645C45.161 53.6866 44.6552 54.1935 44.032 54.1935H31.6126C30.9894 54.1935 30.4836 53.6866 30.4836 53.0645C30.4836 52.4424 30.9894 51.9355 31.6126 51.9355H44.032C44.6552 51.9355 45.161 52.4424 45.161 53.0645ZM45.161 57.5806C45.161 58.2027 44.6552 58.7097 44.032 58.7097H31.6126C30.9894 58.7097 30.4836 58.2027 30.4836 57.5806C30.4836 56.9585 30.9894 56.4516 31.6126 56.4516H44.032C44.6552 56.4516 45.161 56.9585 45.161 57.5806ZM19.6607 59.8387H9.03312L9.03199 47.4193H24.1757L28.6918 42.9032H40.0793C40.7025 42.9032 41.2083 43.4102 41.2083 44.0323C41.2083 44.6543 40.7025 45.1613 40.0793 45.1613H39.5159H31.1441L22.9101 53.3953L24.5065 54.9918L28.9188 50.5795C28.9786 50.6574 29.0407 50.7342 29.1062 50.8064C28.5643 51.4071 28.2255 52.194 28.2255 53.0645C28.2255 53.935 28.5654 54.7219 29.1062 55.3226C28.5643 55.9232 28.2255 56.7102 28.2255 57.5806C28.2255 58.4511 28.5654 59.2381 29.1062 59.8387C28.5643 60.4393 28.2255 61.2263 28.2255 62.0968C28.2255 62.4942 28.3068 62.8713 28.4333 63.2258H23.0478L19.6607 59.8387ZM36.1288 67.7419H31.6126V65.4839H36.1288V67.7419ZM44.032 63.2258H38.3868H31.6126C30.9894 63.2258 30.4836 62.7189 30.4836 62.0968C30.4836 61.4747 30.9894 60.9677 31.6126 60.9677H44.032C44.6552 60.9677 45.161 61.4747 45.161 62.0968C45.161 62.7189 44.6552 63.2258 44.032 63.2258Z" fill="#353535"></path> <path d="M53.0647 41.7742H50.8066V44.0322H53.0647V41.7742Z" fill="#353535"></path> <path d="M50.8064 44.0322H48.5483V46.2903H50.8064V44.0322Z" fill="#353535"></path> <path d="M53.0647 46.2903H50.8066V48.5483H53.0647V46.2903Z" fill="#353535"></path> <path d="M55.3225 44.0322H53.0645V46.2903H55.3225V44.0322Z" fill="#353535"></path> <path d="M38.9056 26.1451L36.6758 25.7906C37.6716 19.5301 39.9771 13.6681 43.529 8.36621L45.4055 9.62282C42.0364 14.6515 39.8495 20.2098 38.9056 26.1451Z" fill="#353535"></path> <path d="M38.4448 30.5426L36.189 30.4252C36.2296 29.6484 36.2906 28.8773 36.3707 28.1084L38.6153 28.3432C38.5396 29.0726 38.4832 29.8065 38.4448 30.5426Z" fill="#353535"></path> <path d="M40.6453 38.387H27.0969C25.8516 38.387 24.8389 37.3742 24.8389 36.1289V31.6128H42.9034V36.1289C42.9034 37.3742 41.8906 38.387 40.6453 38.387Z" fill="#F2950A"></path> <path d="M29.2969 30.5426C29.2586 29.8065 29.2021 29.0726 29.1265 28.3432L31.371 28.1084C31.4511 28.8773 31.5121 29.6484 31.5528 30.4252L29.2969 30.5426Z" fill="#353535"></path> <path d="M28.8364 26.1451C27.8925 20.2109 25.7056 14.6515 22.3354 9.62282L24.2119 8.36621C27.7638 13.6681 30.0693 19.5301 31.0651 25.7906L28.8364 26.1451Z" fill="#353535"></path> <path d="M53.0647 20.3228H50.8066V22.5808H53.0647V20.3228Z" fill="#353535"></path> <path d="M50.8064 22.5806H48.5483V24.8386H50.8064V22.5806Z" fill="#353535"></path> <path d="M53.0647 24.8386H50.8066V27.0967H53.0647V24.8386Z" fill="#353535"></path> <path d="M55.3225 22.5806H53.0645V24.8386H55.3225V22.5806Z" fill="#353535"></path> <path d="M13.5486 28.2258H11.2905V30.4839H13.5486V28.2258Z" fill="#353535"></path> <path d="M11.2903 30.4839H9.03223V32.742H11.2903V30.4839Z" fill="#353535"></path> <path d="M13.5486 32.7419H11.2905V35H13.5486V32.7419Z" fill="#353535"></path> <path d="M15.8064 30.4839H13.5483V32.742H15.8064V30.4839Z" fill="#353535"></path> <path d="M11.2903 4.51611H9.03223V6.77418H11.2903V4.51611Z" fill="#353535"></path> <path d="M9.03199 6.77417H6.77393V9.03223H9.03199V6.77417Z" fill="#353535"></path> <path d="M11.2903 9.03223H9.03223V11.2903H11.2903V9.03223Z" fill="#353535"></path> <path d="M13.5486 6.77417H11.2905V9.03223H13.5486V6.77417Z" fill="#353535"></path> <path d="M6.77419 65.4838H2.25806C1.01274 65.4838 0 64.4711 0 63.2258V44.0322C0 42.7869 1.01274 41.7742 2.25806 41.7742H6.77419C8.01952 41.7742 9.03226 42.7869 9.03226 44.0322V63.2258C9.03226 64.4711 8.01952 65.4838 6.77419 65.4838Z" fill="#F2950A"></path> </svg> 