<?xml version="1.0" encoding="UTF-8"?> <svg xmlns="http://www.w3.org/2000/svg" width="69" height="69" viewBox="0 0 69 69" fill="none"> <path d="M34.4878 7.59317L32.1126 6.26303L29.7352 7.59317L27.359 6.26303L24.9838 7.59317L22.6086 6.26303L20.2334 7.59317L17.3169 5.95796L18.4019 4.02321L20.2334 5.04938L22.6086 3.71924L24.9838 5.04938L27.359 3.71924L29.7352 5.04938L32.1126 3.71924L34.4878 5.04938L36.8619 3.71924L39.2381 5.05049L41.6155 3.72035L43.9951 5.05049L46.3737 3.72035L48.7577 5.05049L50.6004 4.0221L51.6809 5.95907L48.7577 7.59207L46.3737 6.26193L43.9951 7.59207L41.6155 6.26193L39.2381 7.59207L36.8619 6.26303L34.4878 7.59317Z" fill="#F29304"></path> <path d="M17.379 13.2732L13.9888 11.3718L15.0737 9.43703L17.379 10.7294L20.2301 9.13306L23.0801 10.7294L25.9312 9.13306L28.7823 10.7294L31.6345 9.13306L34.4867 10.7294L37.3345 9.13306L40.1856 10.7294L43.0389 9.13417L45.8944 10.7306L48.7499 9.13417L51.6088 10.7306L53.9285 9.43592L55.009 11.3729L51.6088 13.2721L48.7499 11.6757L45.8944 13.2721L43.0389 11.6757L40.1856 13.2732L37.3345 11.6769L34.4867 13.2732L31.6345 11.6769L28.7823 13.2732L25.9312 11.6769L23.0801 13.2732L20.2301 11.6769L17.379 13.2732Z" fill="#F29304"></path> <path d="M62.2343 43.375H67.7179L60.5857 33.3906H58.9061V27.8438H53.3593V16.75H58.5445L49.5852 0.109375H19.4146L10.4553 16.75H15.6405V27.8438H10.0936V33.3906H8.41293L1.28076 43.375H6.76551V66.6719H4.54676V68.8906H64.453V66.6719H62.2343V43.375ZM56.6874 33.3906H54.4686V30.0625H56.6874V33.3906ZM50.0311 30.0625H52.2499V33.3906H50.0311V30.0625ZM20.7414 2.32812H48.2595L54.8314 14.5312H14.1695L20.7414 2.32812ZM18.9686 33.3906H16.7499V30.0625H18.9686V33.3906ZM12.3124 30.0625H14.5311V33.3906H12.3124V30.0625ZM8.98426 43.375H13.4218V41.1562H5.5929L9.55448 35.6094H20.078V34.5H21.1874V30.0625H27.8436V27.8438H17.8593V16.75H51.1405V27.8438H41.1561V30.0625H47.8124V34.5H48.9218V35.6094H59.4442L63.4058 41.1562H55.578V43.375H60.0155V66.6719H57.7968V63.3438H55.578V66.6719H46.703V63.3438H44.4843V66.6719H41.1561V48.9219H27.8436V66.6719H24.5155V63.3438H22.2968V66.6719H13.4218V63.3438H11.203V66.6719H8.98426V43.375ZM38.9374 66.6719H30.0624V51.1406H38.9374V66.6719Z" fill="#353535"></path> <path d="M34.5 46.7031C37.5585 46.7031 40.0469 44.2148 40.0469 41.1562C40.0469 38.0977 37.5585 35.6094 34.5 35.6094C31.4415 35.6094 28.9531 38.0977 28.9531 41.1562C28.9531 44.2148 31.4415 46.7031 34.5 46.7031ZM31.376 42.2656H33.3906V44.2803C32.451 43.9452 31.711 43.2053 31.376 42.2656ZM35.6094 44.2803V42.2656H37.624C37.289 43.2053 36.549 43.9452 35.6094 44.2803ZM37.624 40.0469H35.6094V38.0322C36.549 38.3673 37.289 39.1072 37.624 40.0469ZM33.3906 38.0322V40.0469H31.376C31.711 39.1072 32.451 38.3673 33.3906 38.0322Z" fill="#353535"></path> <path d="M18.9688 42.2656H16.75V56.6875H18.9688V42.2656Z" fill="#353535"></path> <path d="M52.25 42.2656H50.0312V56.6875H52.25V42.2656Z" fill="#353535"></path> <path d="M34.5 57.7969H32.2812V60.0156H34.5V57.7969Z" fill="#353535"></path> <path d="M48.9219 18.9688H42.2656V25.625H48.9219V18.9688ZM46.7031 23.4062H44.4844V21.1875H46.7031V23.4062Z" fill="#353535"></path> <path d="M20.0781 25.625H26.7344V18.9688H20.0781V25.625ZM22.2969 21.1875H24.5156V23.4062H22.2969V21.1875Z" fill="#353535"></path> <path d="M68.8906 66.6719H66.6719V68.8906H68.8906V66.6719Z" fill="#353535"></path> <path d="M2.32812 66.6719H0.109375V68.8906H2.32812V66.6719Z" fill="#353535"></path> <path d="M22.2969 64.4531H13.4219C11.587 64.4531 10.0938 62.9599 10.0938 61.125C10.0938 59.5575 11.1832 58.2384 12.6453 57.8878C13.2566 56.5122 14.64 55.5781 16.1953 55.5781C16.7755 55.5781 17.3402 55.7079 17.8594 55.9598C18.3786 55.7079 18.9432 55.5781 19.5234 55.5781C21.0788 55.5781 22.4622 56.5122 23.0734 57.8878C24.5356 58.2384 25.625 59.5575 25.625 61.125C25.625 62.9599 24.1318 64.4531 22.2969 64.4531Z" fill="#F29304"></path> <path d="M55.5781 64.4531H46.7031C44.8682 64.4531 43.375 62.9599 43.375 61.125C43.375 59.5575 44.4644 58.2384 45.9266 57.8878C46.5378 56.5122 47.9212 55.5781 49.4766 55.5781C50.0568 55.5781 50.6214 55.7079 51.1406 55.9598C51.6598 55.7079 52.2245 55.5781 52.8047 55.5781C54.36 55.5781 55.7434 56.5122 56.3547 57.8878C57.8168 58.2384 58.9062 59.5575 58.9062 61.125C58.9062 62.9599 57.413 64.4531 55.5781 64.4531Z" fill="#F29304"></path> <path d="M53.3427 44.4845H52.9955C52.2766 44.4845 51.5633 44.2459 50.9875 43.8144L34.5 31.4493L18.0114 43.8144C17.4367 44.2459 16.7245 44.4845 16.0045 44.4845H15.6573C13.8135 44.4845 12.3125 42.9835 12.3125 41.1397C12.3125 40.1146 12.7962 39.1284 13.6038 38.4994L31.8342 24.3216C33.3507 23.1412 35.6493 23.1412 37.1669 24.3216L55.3984 38.5005C56.2038 39.1284 56.6875 40.1157 56.6875 41.1397C56.6875 42.9835 55.1865 44.4845 53.3427 44.4845Z" fill="#F29304"></path> </svg> 