<?xml version="1.0" encoding="UTF-8"?> <svg xmlns="http://www.w3.org/2000/svg" width="70" height="70" viewBox="0 0 70 70" fill="none"> <path d="M44.8438 54.6875H25.1562V67.8125H44.8438V54.6875Z" fill="#F29304"></path> <path d="M59.3275 38.3141C54.6648 37.147 51.4065 32.9755 51.4065 28.1684V17.5C51.4065 8.45359 44.0467 1.09375 35.0003 1.09375C25.9539 1.09375 18.594 8.45359 18.594 17.5V28.1684C18.594 32.9766 15.3357 37.147 10.6731 38.3141L9.16699 38.6903L10.7628 41.0834C12.1267 43.1298 13.9959 44.7333 16.2053 45.7658C16.3496 45.7089 16.4864 45.6389 16.6373 45.5919L29.5315 41.5625V36.8167C26.8682 35.2756 24.9148 32.6441 24.2826 29.5312H24.0628C21.6467 29.5312 19.6878 27.5723 19.6878 25.1562C19.6878 22.7402 21.6467 20.7812 24.0628 20.7812C24.0628 17.7986 25.2593 15.0981 27.1953 13.125H27.0859C26.5664 12.5442 26.2503 11.7775 26.2503 10.9375C26.2503 9.12516 27.7192 7.65625 29.5315 7.65625C30.4831 7.65625 31.3318 8.0675 31.9312 8.71391C32.3928 7.46047 33.5871 6.5625 35.0003 6.5625C36.4134 6.5625 37.6078 7.46047 38.0693 8.71391C38.6687 8.0675 39.5175 7.65625 40.469 7.65625C42.2814 7.65625 43.7503 9.12516 43.7503 10.9375C43.7503 11.7775 43.4342 12.5442 42.9146 13.125H42.8053C44.7412 15.0981 45.9378 17.7986 45.9378 20.7812C48.3539 20.7812 50.3128 22.7402 50.3128 25.1562C50.3128 27.5723 48.3539 29.5312 45.9378 29.5312H45.7179C45.0857 32.6441 43.1323 35.2756 40.469 36.8167V41.5625L53.3643 45.5919C53.5142 45.6389 53.6509 45.7089 53.7964 45.7658C56.0057 44.7333 57.875 43.1298 59.2389 41.0834L60.8346 38.6903L59.3275 38.3141Z" fill="#F29304"></path> <path d="M59.0625 51.8558C59.0625 48.4881 56.9034 45.5514 53.69 44.5473L41.5625 40.7586V37.415C43.9797 35.8345 45.7887 33.4086 46.5817 30.5605C49.2909 30.2367 51.4062 27.9508 51.4062 25.1562C51.4062 22.4984 49.4987 20.2825 46.9809 19.7925C46.7742 17.2638 45.7898 14.9527 44.2575 13.1075C44.6338 12.4502 44.8438 11.7064 44.8438 10.9375C44.8438 8.52469 42.8816 6.5625 40.4688 6.5625C39.7403 6.5625 39.025 6.74953 38.3906 7.09625C37.5747 6.08891 36.3333 5.46875 35 5.46875C33.6667 5.46875 32.4253 6.08891 31.6094 7.09625C30.975 6.74953 30.2597 6.5625 29.5312 6.5625C27.1184 6.5625 25.1562 8.52469 25.1562 10.9375C25.1562 11.7064 25.3662 12.4502 25.7425 13.1075C24.2102 14.9538 23.2258 17.2648 23.0191 19.7925C20.5012 20.2825 18.5938 22.4984 18.5938 25.1562C18.5938 27.9508 20.7091 30.2367 23.4183 30.5594C24.2102 33.4086 26.0203 35.8334 28.4375 37.4139V40.7575L16.31 44.5473C13.0966 45.5514 10.9375 48.4892 10.9375 51.8558V60.1562H13.125V68.9062H56.875V60.1562H59.0625V51.8558ZM48.6992 54.6208C49.7405 55.662 50.3125 57.0445 50.3125 58.5156C50.3125 59.9867 49.7405 61.3692 48.6992 62.4105L47.0312 64.0784V66.7188H22.9688V64.0784L21.3008 62.4105C20.2595 61.3692 19.6875 59.9867 19.6875 58.5156C19.6875 57.0445 20.2595 55.662 21.3008 54.6208C22.3759 53.5456 22.9688 52.115 22.9688 50.5936V44.7584L25.1562 44.0748V52.5H44.8438V44.0759L47.0312 44.7595V50.5947C47.0312 52.115 47.6241 53.5456 48.6992 54.6208ZM40.4688 16.4062V18.5938H38.2812V16.4062H36.0938V18.5938H33.9062V16.4062H31.7188V18.5938H29.5312V16.4062H27.3438V18.5938H25.41C26.4086 14.2166 30.3253 10.9375 35 10.9375C39.6747 10.9375 43.5914 14.2166 44.59 18.5938H42.6562V16.4062H40.4688ZM49.2188 25.1562C49.2188 26.5967 48.2792 27.8108 46.9853 28.2505C47.0083 27.9497 47.0312 27.65 47.0312 27.3438V22.0763C48.3011 22.5291 49.2188 23.7322 49.2188 25.1562ZM42.6562 10.9375C42.6562 11.1136 42.6278 11.2864 42.5863 11.4548C41.5034 10.5722 40.262 9.88313 38.9156 9.41828C39.3345 8.98953 39.8814 8.75 40.4688 8.75C41.6752 8.75 42.6562 9.73109 42.6562 10.9375ZM35 7.65625C35.84 7.65625 36.5892 8.16484 36.948 8.92281C36.3125 8.81781 35.665 8.75 35 8.75C34.335 8.75 33.6875 8.81781 33.052 8.92281C33.4108 8.16484 34.16 7.65625 35 7.65625ZM29.5312 8.75C30.1186 8.75 30.6655 8.98953 31.0833 9.41719C29.7369 9.88203 28.4955 10.5722 27.4127 11.4538C27.3722 11.2853 27.3438 11.1136 27.3438 10.9375C27.3438 9.73109 28.3248 8.75 29.5312 8.75ZM20.7812 25.1562C20.7812 23.7322 21.6989 22.5291 22.9688 22.0763V27.3438C22.9688 27.65 22.9917 27.9497 23.0147 28.2505C21.7208 27.8108 20.7812 26.5967 20.7812 25.1562ZM25.1562 27.3438V20.7812H44.8438V27.3438C44.8438 32.7709 40.4283 37.1875 35 37.1875C29.5717 37.1875 25.1562 32.7709 25.1562 27.3438ZM35 39.375C36.5444 39.375 38.0166 39.072 39.375 38.5394V41.1097L35 45.4847L30.625 41.1097V38.5394C31.9834 39.072 33.4556 39.375 35 39.375ZM29.2261 42.8039L35 48.5778L40.7739 42.8039L42.6562 43.3923V50.3125H27.3438V43.3923L29.2261 42.8039ZM13.125 51.8558C13.125 49.4506 14.6672 47.3528 16.9619 46.6364L20.7812 45.442V50.5936C20.7812 51.5298 20.4159 52.4114 19.7542 53.0742C18.4308 54.3977 17.6564 56.1192 17.5273 57.9688H13.125V51.8558ZM15.3125 60.1562H17.6794C17.9878 61.5847 18.6955 62.8983 19.7531 63.957L20.7812 64.9841V66.7188H15.3125V60.1562ZM54.6875 66.7188H49.2188V64.9841L50.2458 63.957C51.3045 62.8994 52.0111 61.5858 52.3195 60.1562H54.6875V66.7188ZM56.875 57.9688H52.4738C52.3447 56.1192 51.5703 54.3977 50.2469 53.0742C49.5841 52.4114 49.2188 51.5309 49.2188 50.5936V45.442L53.0381 46.6353C55.3328 47.3528 56.875 49.4506 56.875 51.8558V57.9688Z" fill="#353535"></path> <path d="M40.4688 25.1562C41.0728 25.1562 41.5625 24.6666 41.5625 24.0625C41.5625 23.4584 41.0728 22.9688 40.4688 22.9688C39.8647 22.9688 39.375 23.4584 39.375 24.0625C39.375 24.6666 39.8647 25.1562 40.4688 25.1562Z" fill="#353535"></path> <path d="M29.5312 25.1562C30.1353 25.1562 30.625 24.6666 30.625 24.0625C30.625 23.4584 30.1353 22.9688 29.5312 22.9688C28.9272 22.9688 28.4375 23.4584 28.4375 24.0625C28.4375 24.6666 28.9272 25.1562 29.5312 25.1562Z" fill="#353535"></path> <path d="M39.375 29.5312H37.1875C37.1875 30.7377 36.2064 31.7188 35 31.7188C33.7936 31.7188 32.8125 30.7377 32.8125 29.5312H30.625C30.625 31.9441 32.5872 33.9062 35 33.9062C37.4128 33.9062 39.375 31.9441 39.375 29.5312Z" fill="#353535"></path> <path d="M38.2812 59.0625H25.1562V61.25H38.2812V59.0625Z" fill="#353535"></path> <path d="M44.8438 59.0625H40.4688V61.25H44.8438V59.0625Z" fill="#353535"></path> </svg> 