<?xml version="1.0" encoding="UTF-8"?> <svg xmlns="http://www.w3.org/2000/svg" width="66" height="66" viewBox="0 0 66 66" fill="none"> <path d="M45.375 58.7812H14.4375V60.8438H45.375V58.7812Z" fill="#F29304"></path> <path d="M51.5625 58.7812H47.4375V60.8438H51.5625V58.7812Z" fill="#F29304"></path> <path d="M35.3265 52.5938H18.5625V30.6735C18.5625 29.1132 19.832 27.8438 21.3922 27.8438H29.5989C30.8581 27.8438 31.9471 28.6543 32.3101 29.8609L38.0377 48.9514C38.116 49.2133 38.1562 49.4866 38.1562 49.764C38.1562 51.3243 36.8868 52.5938 35.3265 52.5938Z" fill="#F29304"></path> <path d="M51.5625 54.846V25.7235C51.5625 22.1853 49.5969 19.0039 46.432 17.4219L34.2746 11.3438H33.9333L33.1805 3.81666C33.0217 2.22853 31.6975 1.03125 30.1022 1.03125H19.3978C17.8025 1.03125 16.4783 2.22853 16.3195 3.81666L15.5605 11.4097C15.0356 11.5407 14.5726 11.8614 14.2653 12.3224C13.0278 14.1766 12.375 16.334 12.375 18.5625C12.375 20.791 13.0278 22.9484 14.2642 24.8026C14.3777 24.9727 14.4375 25.1697 14.4375 25.3739V54.846C13.2402 55.2729 12.375 56.4073 12.375 57.75V61.875C12.375 63.5807 13.7631 64.9688 15.4688 64.9688H50.5312C52.2369 64.9688 53.625 63.5807 53.625 61.875V57.75C53.625 56.4073 52.7598 55.2729 51.5625 54.846ZM17.6395 11.3438L17.8458 9.28125H19.5938V11.3438H17.6395ZM21.6562 9.28125H23.7188V11.3438H21.6562V9.28125ZM25.7812 9.28125H27.8438V11.3438H25.7812V9.28125ZM29.9062 9.28125H31.6542L31.8605 11.3438H29.9062V9.28125ZM19.3978 3.09375H30.1022C30.6343 3.09375 31.0757 3.49284 31.1283 4.02188L31.448 7.21875H18.052L18.3717 4.02188C18.4243 3.49284 18.8657 3.09375 19.3978 3.09375ZM15.9803 13.4671C16.006 13.4289 16.0483 13.4062 16.0927 13.4062H33.7879L45.5091 19.2679C47.9707 20.4982 49.5 22.9721 49.5 25.7245V54.6562H16.5V25.7812H18.5625V23.7188H16.0143C16.0019 23.6992 15.9926 23.6775 15.9803 23.6579C14.9717 22.144 14.4375 20.3827 14.4375 18.5625C14.4375 16.7423 14.9717 14.981 15.9803 13.4671ZM51.5625 61.875C51.5625 62.4432 51.0995 62.9062 50.5312 62.9062H15.4688C14.9005 62.9062 14.4375 62.4432 14.4375 61.875V57.75C14.4375 57.1818 14.9005 56.7188 15.4688 56.7188H50.5312C51.0995 56.7188 51.5625 57.1818 51.5625 57.75V61.875Z" fill="#353535"></path> <path d="M37.8809 28.6687C39.3453 29.766 40.2188 31.514 40.2188 33.3434V48.9844C40.2188 50.9747 41.8378 52.5938 43.8281 52.5938C45.8184 52.5938 47.4375 50.9747 47.4375 48.9844V27.5003C47.4375 23.7095 44.353 20.625 40.5622 20.625C38.5801 20.625 36.9157 21.9295 36.332 23.7188H20.625V25.7812H36.1546C36.334 26.9208 36.9476 27.9685 37.8809 28.6687ZM40.5622 22.6875C43.2166 22.6875 45.375 24.8459 45.375 27.5003V48.9844C45.375 49.8372 44.681 50.5312 43.8281 50.5312C42.9753 50.5312 42.2812 49.8372 42.2812 48.9844V33.3434C42.2812 30.8674 41.0994 28.5027 39.1194 27.0177C38.5162 26.5671 38.1562 25.8472 38.1562 25.0934C38.1562 23.7672 39.236 22.6875 40.5622 22.6875Z" fill="#353535"></path> <path d="M30.9375 42.2812H22.6875V44.3438H30.9375V42.2812Z" fill="#353535"></path> <path d="M30.9375 46.4062H22.6875V48.4688H30.9375V46.4062Z" fill="#353535"></path> </svg> 