<?xml version="1.0" encoding="UTF-8"?> <svg xmlns="http://www.w3.org/2000/svg" width="56" height="64" viewBox="0 0 56 64" fill="none"> <rect x="10.6724" y="53.8784" width="43.9771" height="7.5867" fill="#F29304"></rect> <path fill-rule="evenodd" clip-rule="evenodd" d="M9.19385 7.20776C9.19385 6.10319 10.0893 5.20776 11.1939 5.20776H53.9999C55.1045 5.20776 55.9999 6.10319 55.9999 7.20776V61.3296C55.9999 62.4342 55.1045 63.3296 53.9999 63.3296H11.1938C10.0893 63.3296 9.19385 62.4342 9.19385 61.3296V7.20776ZM11.3798 7.39376V61.1436H53.8139V7.39376H11.3798Z" fill="#353535"></path> <path d="M23.4028 9.12976C23.4028 4.08753 27.4904 0 32.5326 0C37.5748 0 41.6623 4.08753 41.6623 9.12976V11.8815C41.6623 12.2792 41.3399 12.6016 40.9422 12.6016H24.1229C23.7252 12.6016 23.4028 12.2792 23.4028 11.8815V9.12976Z" fill="#F29304"></path> <path fill-rule="evenodd" clip-rule="evenodd" d="M46.8062 29.2539H18.0024V27.0679H46.8062V29.2539Z" fill="#353535"></path> <path fill-rule="evenodd" clip-rule="evenodd" d="M37.1621 35.2331H18.0024V33.0471H37.1621V35.2331Z" fill="#353535"></path> <path fill-rule="evenodd" clip-rule="evenodd" d="M37.1621 41.534H18.0024V39.348H37.1621V41.534Z" fill="#353535"></path> <path fill-rule="evenodd" clip-rule="evenodd" d="M41.9842 41.5982H39.3481V39.4122H41.9842V41.5982Z" fill="#353535"></path> <path fill-rule="evenodd" clip-rule="evenodd" d="M46.8699 41.5982H44.2339V39.4122H46.8699V41.5982Z" fill="#353535"></path> <path d="M32.5329 9.38695C30.8314 9.38695 29.4468 8.00231 29.4468 6.30084C29.4468 4.59936 30.8314 3.21472 32.5329 3.21472C34.2344 3.21472 35.619 4.59936 35.619 6.30084C35.619 8.00231 34.2344 9.38695 32.5329 9.38695ZM32.5329 5.27213C31.9661 5.27213 31.5042 5.73299 31.5042 6.30084C31.5042 6.86868 31.9661 7.32954 32.5329 7.32954C33.0997 7.32954 33.5616 6.86868 33.5616 6.30084C33.5616 5.73299 33.0997 5.27213 32.5329 5.27213Z" fill="#353535"></path> <path fill-rule="evenodd" clip-rule="evenodd" d="M2.7005 25.0748C2.34541 25.0748 2.05756 25.3626 2.05756 25.7177V55.9359H3.34344V25.7209C3.34344 25.3634 3.05314 25.0748 2.7005 25.0748ZM0.257324 25.7177C0.257324 24.3684 1.35117 23.2745 2.7005 23.2745C4.05228 23.2745 5.14367 24.3741 5.14367 25.7209V57.7361H0.257324V25.7177Z" fill="#353535"></path> <path d="M0.771484 58.9223V57.736H4.75772V58.9223C4.75772 59.4013 4.58581 59.8644 4.27325 60.2274L2.7646 61.9794L1.25595 60.2274C0.943392 59.8644 0.771484 59.4013 0.771484 58.9223Z" fill="#F29304"></path> <path fill-rule="evenodd" clip-rule="evenodd" d="M5.4007 36.0047H0V34.2045H5.4007V36.0047Z" fill="#353535"></path> </svg> 