<?xml version="1.0" encoding="UTF-8"?> <svg xmlns="http://www.w3.org/2000/svg" id="Слой_1" data-name="Слой 1" viewBox="0 0 517.4 403.92"> <defs> <style>.cls-1{fill:#2e4c9c;}.cls-2{fill:#f39200;}</style> </defs> <path class="cls-1" d="M1199.44,660.07q8.77,0,8.78-8.79V617q0-8.79-8.78-8.79h-31.26q-8.79,0-8.79,8.79v34.33q0,8.79,8.79,8.79Zm-32.56,9.28q-8.58,0-13.13-4.59t-4.54-13.18V616.65q0-8.58,4.54-13.18t13.13-4.59h33.86q8.58,0,13.12,4.59t4.54,13.18v34.93q0,8.58-4.54,13.18t-13.12,4.59Zm-32.08-70.17a1.33,1.33,0,0,1,1.5,1.5v6.69a1.32,1.32,0,0,1-1.5,1.49h-29v58.69a1.32,1.32,0,0,1-1.49,1.5h-7.19a1.33,1.33,0,0,1-1.5-1.5V608.86h-28.94a1.32,1.32,0,0,1-1.5-1.49v-6.69a1.33,1.33,0,0,1,1.5-1.5Zm-133.18,70.17q-8.58,0-13.13-4.59T984,651.58v-34.7q0-8.58,4.54-13.17t13.13-4.59h34.43q8.6,0,13.18,4.59t4.59,13.17v4.2a1.32,1.32,0,0,1-1.5,1.49H1045a1.32,1.32,0,0,1-1.5-1.49v-3.9q0-4.59-2.1-6.68t-6.68-2.1h-31.84q-8.79,0-8.79,8.78v34.1q0,8.79,8.79,8.79h31.84q4.59,0,6.68-2.15t2.1-6.64v-4a1.33,1.33,0,0,1,1.5-1.5h7.28a1.33,1.33,0,0,1,1.5,1.5v4.29q0,8.58-4.59,13.18t-13.18,4.59Zm-103.26-.3a1.33,1.33,0,0,1-1.5-1.5V600.68a1.33,1.33,0,0,1,1.5-1.5h7.29a1.33,1.33,0,0,1,1.5,1.5V655h.49l46.42-54.5a3.28,3.28,0,0,1,2.59-1.3h8.09a1.32,1.32,0,0,1,1.49,1.5v66.87a1.32,1.32,0,0,1-1.49,1.5h-7.19a1.33,1.33,0,0,1-1.5-1.5v-54.1h-.5l-46.41,54.3a3.37,3.37,0,0,1-2.69,1.3Zm-23.65-69.87a1.33,1.33,0,0,1,1.5,1.5v66.87a1.33,1.33,0,0,1-1.5,1.5h-7.29a1.33,1.33,0,0,1-1.5-1.5V643.76H824.45q-8.58,0-13.18-4.54t-4.59-13.13V600.68a1.33,1.33,0,0,1,1.5-1.5h7.29a1.32,1.32,0,0,1,1.49,1.5v24.61q0,8.79,8.79,8.79h40.17v-33.4a1.33,1.33,0,0,1,1.5-1.5Z" transform="translate(-701 -338)"></path> <path class="cls-2" d="M1071.64,579.85h15.7c2.7,0,4.62-.56,5.75-1.7s1.7-3,1.7-5.75V555.57c0-2.7-.56-4.62-1.7-5.75s-3-1.71-5.75-1.71h-15.7q-4,0-5.75,1.71t-1.7,5.75V572.4c0,2.7.57,4.61,1.7,5.75s3.06,1.7,5.75,1.7Zm104.74-23.3v10l30.22.05v-10a7.63,7.63,0,0,0-8.44-8.44h-13.34a7.63,7.63,0,0,0-8.44,8.44Zm8-13.67h14.23a12.9,12.9,0,0,1,13.22,13.23v29h-5.23V571.82l-30.22-.05v13.32h-5.23v-29a12.9,12.9,0,0,1,13.23-13.23Zm-49.44,23.61,18-23.61h4.3l0,42.21H1152l0-32.73-17.08,22.08-17-22.08,0,32.73h-5.24l0-42.21H1117l18,23.61Zm-47.15,18.6H1071.2q-5.73,0-9-3.26t-3.26-9V555.12q0-5.67,3.26-9t9-3.28h16.59c3.81,0,6.82,1.09,9,3.26s3.29,5.17,3.29,9v17.72q0,5.73-3.29,9c-2.18,2.17-5.19,3.26-9,3.26Z" transform="translate(-701 -338)"></path> <path class="cls-2" d="M1213.61,693.27v-7.69h-11.7a2.55,2.55,0,0,0-1.85.57,2.46,2.46,0,0,0-.59,1.82v2.94a2.39,2.39,0,0,0,.59,1.8,2.59,2.59,0,0,0,1.85.56ZM1111,701.86h8.42a4.15,4.15,0,0,0,2.94-.83,4,4,0,0,0,.84-2.89v-8.56a4,4,0,0,0-.84-2.91,4.2,4.2,0,0,0-2.94-.81H1111a4.2,4.2,0,0,0-2.94.81,4,4,0,0,0-.84,2.91v8.56a4,4,0,0,0,.84,2.89,4.15,4.15,0,0,0,2.94.83Zm57.41-11.72v4.52l15.93,0v-4.55c0-2.86-1.46-4.29-4.36-4.29h-7.21c-2.9,0-4.36,1.44-4.36,4.29ZM1133,706v-24.3h18.27a10,10,0,0,1,3.78.64,4.66,4.66,0,0,1,2.32,2,6.79,6.79,0,0,1,.8,3.46c0,3.08-1.18,5-3.53,5.59v.15a4.5,4.5,0,0,1,3,1.73,6.15,6.15,0,0,1,1,3.75,9.08,9.08,0,0,1-.43,2.91,5.64,5.64,0,0,1-1.32,2.2,5.83,5.83,0,0,1-2.2,1.39,9.45,9.45,0,0,1-3.11.48Zm4.69-10.67v6.81h11.6a6.59,6.59,0,0,0,3.58-.76,3,3,0,0,0,1.11-2.71,4.45,4.45,0,0,0-.38-2,2.14,2.14,0,0,0-1.21-1,7.07,7.07,0,0,0-2.24-.29Zm-236.4-13.79v11.06h4.6l9.41-10.88h4.94l-10.52,12.76L921.45,706h-5.66l-9.87-9.48h-4.6V706h-4.49V681.55Zm236.4,4v6.3h11.6a9.16,9.16,0,0,0,2.47-.25,2,2,0,0,0,1.26-1,4.63,4.63,0,0,0,.4-2.16,2.84,2.84,0,0,0-.77-2.3,4.14,4.14,0,0,0-2.56-.62Zm-203.67-3.86h16V706h-4.21V685.86H934.31c-2.9,0-4.36,1.43-4.36,4.29V706h-4.21V689.89a7.85,7.85,0,0,1,2.37-5.85,8.07,8.07,0,0,1,5.94-2.33Zm144.09,0h20.62v4.14h-16.41l0,20.12h-4.21l0-20.12v-4.14Zm94.36,0h7.73a8.11,8.11,0,0,1,5.94,2.33,7.89,7.89,0,0,1,2.37,5.86V706h-4.21v-7.17l-15.93,0V706h-4.21V689.89a7.89,7.89,0,0,1,2.37-5.86,8.11,8.11,0,0,1,5.94-2.33ZM1007,692.64V681.72h4.21V706H1007v-9.17l-15.69,0V706H987.1V681.72h4.21v10.94l15.69,0Zm-30-11.29h3.17l0,24.66H976l0-17.19L959.62,706h-3.14V681.35h4.21v16.86l16.36-16.86Zm61.22.35h3.17l0,24.31h-4.21l0-17-16.39,17h-3.14V681.7h4.21v16.62l16.36-16.62Zm29.37,10.94V681.72h4.21V706h-4.21v-9.17l-15.68,0V706h-4.21V681.72H1052v10.94l15.68,0Zm52,13.37h-8.94a7.71,7.71,0,0,1-5.65-2,7.44,7.44,0,0,1-2.08-5.57v-9.06a7.44,7.44,0,0,1,2.08-5.57,7.71,7.71,0,0,1,5.65-2h8.94a7.73,7.73,0,0,1,5.65,2,7.47,7.47,0,0,1,2.07,5.57v9.06a7.47,7.47,0,0,1-2.07,5.57,7.73,7.73,0,0,1-5.65,2Zm98-24.24h.63V706h-4.65v-9h-4.37l-7.25,7-2.06,2h-5.87l1-.94a1,1,0,0,1,.18-.17l8.11-7.86h-2.68a6.08,6.08,0,0,1-4.39-1.37,5.82,5.82,0,0,1-1.39-4.31v-3.94a5.76,5.76,0,0,1,1.39-4.3,6.12,6.12,0,0,1,4.39-1.35h17Z" transform="translate(-701 -338)"></path> <path class="cls-2" d="M1016.31,737.74h8.42a4.12,4.12,0,0,0,2.94-.82,4,4,0,0,0,.84-2.9v-8.54a4,4,0,0,0-.84-2.91,4.17,4.17,0,0,0-2.94-.81h-8.42a4.2,4.2,0,0,0-2.94.81,4,4,0,0,0-.83,2.91V734a4,4,0,0,0,.83,2.9,4.15,4.15,0,0,0,2.94.82ZM1107.12,726v4.51l15.92,0V726c0-2.87-1.46-4.3-4.35-4.3h-7.22c-2.9,0-4.35,1.44-4.35,4.3ZM984.48,717.4v11.07h4.61l9.41-10.89h4.94l-10.52,12.78,11.7,11.53H999l-9.86-9.49h-4.61v9.52H980V717.4Zm200.64.19h3.17l0,24.3h-4.2l0-16.94-16.39,16.94h-3.14v-24.3h4.21v16.62l16.36-16.62Zm-31.48,10.93V717.6h4.21v24.29h-4.21v-9.16l-15.69,0v9.13h-4.21V717.6H1138v10.95l15.69,0Zm-42.43-10.95H1119a8.14,8.14,0,0,1,5.94,2.33,7.92,7.92,0,0,1,2.36,5.86v16.13H1123v-7.18l-15.92,0v7.2h-4.21V725.76a7.92,7.92,0,0,1,2.36-5.86,8.14,8.14,0,0,1,5.94-2.33Zm-38.42,0h24.49v4.15l0,20.17h-4.2l0-20.17H1077l0,20.17h-4.21l0-20.17v-4.15Zm-20,12.48,10.38-12.45h3.32l0,24.29h-4.21l0-17.24-9.49,11.19-9.46-11.19,0,17.24h-4.21l0-24.29h3.32l10.35,12.45ZM1025,741.89h-8.94a7.69,7.69,0,0,1-5.65-2,7.45,7.45,0,0,1-2.07-5.56v-9.06a7.45,7.45,0,0,1,2.07-5.56,7.69,7.69,0,0,1,5.65-2H1025a7.66,7.66,0,0,1,5.65,2,7.41,7.41,0,0,1,2.08,5.56v9.06a7.41,7.41,0,0,1-2.08,5.56,7.66,7.66,0,0,1-5.65,2Zm192.64-24.21h.63v24.24h-4.65v-9h-4.37l-7.25,7-2.06,2h-5.87l1-.94a1,1,0,0,1,.18-.17l8.11-7.86h-2.68a6.08,6.08,0,0,1-4.39-1.37,5.82,5.82,0,0,1-1.39-4.31v-3.94a5.76,5.76,0,0,1,1.39-4.3,6.12,6.12,0,0,1,4.39-1.35h17Zm-4,11.5v-7.69h-11.7a2.55,2.55,0,0,0-1.85.57,2.46,2.46,0,0,0-.59,1.82v2.94a2.39,2.39,0,0,0,.59,1.8,2.59,2.59,0,0,0,1.85.56Z" transform="translate(-701 -338)"></path> <path class="cls-1" d="M1019.23,576H785.35L768.77,592.8l-.52.52c-1.22,1.27-1.27,1.27-2-.14l-.31-.62L753.62,567.9l-.7-1.39c-1.21-2.26-1.23-2.36.08-3.75l1-1,120.79-126.3,24.56-25.68h0l25.16,25.11,0,0,127.75,127.78-15.27,30.51L1019.23,576Zm-218-16.14h201.35l-102.78-100-98.57,100Z" transform="translate(-701 -338)"></path> <path class="cls-1" d="M863.32,701.17c-.78-.1-.87-.13-1.66-.27-33.76-5.92-76.84-34.16-98.78-64.32-31.6-43.46-39.58-101.6-25.51-148.53.28-.94.86-3,2-2.95.48,0,.86.47.89,1.38a6.36,6.36,0,0,1-.17,1.5A128.1,128.1,0,0,0,737,506.72,154,154,0,0,0,764.6,610.23a149.11,149.11,0,0,0,60.55,49.41c1.44.64,2.89,1.25,4.35,1.85,3.75,1.54,3.43,2.71,5.12,6,5.66,10.84,18.44,25.26,27.69,31.58.7.48,1.41.89,2.09,1.35,1,.71,1,1-1.08.79Z" transform="translate(-701 -338)"></path> <path class="cls-1" d="M1059.67,485.07l-.63-2.17C1040,418.87,979.07,372,906.87,372c-54.26,0-102.14,26.44-130.68,66.76a4.13,4.13,0,0,0-.38.81c-.48,1.44.38,2.3,1.72,1.34a6.14,6.14,0,0,0,1.09-1.05c25.88-33.42,67.77-55.13,115-55.13,71.35,0,130.44,49.46,140.71,114,.19,1.18.41,2.37.52,3.57.44,5.08.61,5.26,4.63,1.77.81-.7,1.65-1.33,2.44-2l15.5-12.55,1.24-1c1.55-1.25,1.57-1.33,1-3.48Z" transform="translate(-701 -338)"></path> <path class="cls-2" d="M942.58,439.17c20.64,20.77,31.19,31.42,31.22,31.43l1.36,1.33q2.05,2.1,3.75,1.23a2.11,2.11,0,0,0,1-1.81V427.19a2.14,2.14,0,0,0-2.13-2.13h-33.1a2.14,2.14,0,0,0-2.13,2.13v12Z" transform="translate(-701 -338)"></path> <path class="cls-2" d="M725.67,537.83c0-97.45,78.34-176.46,175-176.46,78.66,0,145.19,52.34,167.23,124.36.35.95,1,.82,1.17-.07a19.94,19.94,0,0,0,0-4.73,142,142,0,0,0-29.76-71.55,190,190,0,0,0-13.13-14.79h0A189.36,189.36,0,0,0,890.83,338C786,338,701,422.89,701,527.6s85,189.59,189.83,189.59q8.42,0,16.66-.72a2.57,2.57,0,0,0,.41-.19,1.12,1.12,0,0,0-.18-2.08l-.15-.05q-3.45.14-6.93.14c-96.63,0-175-79-175-176.46Z" transform="translate(-701 -338)"></path> <path class="cls-2" d="M882.27,507.72h14.84a2.06,2.06,0,0,1,2.06,2.06v15.78a2.07,2.07,0,0,1-2.06,2.07H882.27a2.07,2.07,0,0,1-2.06-2.07V509.78a2.07,2.07,0,0,1,2.06-2.06Zm0,25.76h14.84a2.06,2.06,0,0,1,2.06,2.06v15.78a2.07,2.07,0,0,1-2.06,2.07H882.27a2.07,2.07,0,0,1-2.06-2.07V535.54a2.07,2.07,0,0,1,2.06-2.06Zm24.82,0h14.84a2.07,2.07,0,0,1,2.06,2.06v15.78a2.07,2.07,0,0,1-2.06,2.07H907.09a2.07,2.07,0,0,1-2.06-2.07V535.54a2.07,2.07,0,0,1,2.06-2.06Zm0-25.76h14.84a2.07,2.07,0,0,1,2.06,2.06v15.78a2.07,2.07,0,0,1-2.06,2.07H907.09a2.07,2.07,0,0,1-2.06-2.07V509.78a2.07,2.07,0,0,1,2.06-2.06Z" transform="translate(-701 -338)"></path> </svg> 