<svg viewBox="0 0 32 32"><path fill-rule="evenodd" d="M16.057,3 L16.42825,3.00521889 C19.7537185,3.09809048 22.8567935,4.42768871 25.2148136,6.77702553 C27.6580581,9.21127281 29.0009993,12.4431742 29.0000006,15.8844789 C28.9970021,22.982176 23.1903839,28.7587689 16.0527689,28.7587689 C13.8879869,28.7577699 11.7588025,28.2177278 9.86801478,27.1913002 L9.86801478,27.1913002 L9.52067801,27.0027459 L3.423,28.594 L5.0525235,22.6716857 L4.84251549,22.3091808 L4.63650127,21.939672 C3.63807418,20.0773959 3.11537211,17.9979818 3.11630634,15.8744405 C3.11926123,8.88021932 8.75808225,3.16773728 15.7488728,3.00362716 L15.7488728,3.00362716 L16.057,3 Z M11.1226152,9.46630783 C10.8899998,9.46630783 10.5130767,9.5535386 10.1932306,9.90030782 C9.87446137,10.247077 8.97523062,11.0860001 8.97523062,12.7918462 C8.97523062,14.4987693 10.2223075,16.1475385 10.3967691,16.3790769 C10.5712306,16.6095384 12.8532305,20.1116922 16.3478458,21.6139999 C17.1792304,21.9704614 17.8275381,22.1836922 18.333692,22.3441537 C19.1672304,22.6079999 19.9264612,22.5713845 20.5273842,22.4819999 C21.1972304,22.381846 22.5886149,21.6419999 22.8793842,20.8321537 C23.1690765,20.0223076 23.1690765,19.3287692 23.0818457,19.1844615 C22.9946149,19.0390769 22.7630765,18.952923 22.4141534,18.7795384 C22.0663073,18.6061538 20.3539996,17.7672307 20.0341535,17.650923 C19.7143073,17.5356923 19.4827689,17.4775384 19.2501535,17.8243077 C19.018615,18.1721538 18.3509227,18.952923 18.1473843,19.1844615 C17.9449227,19.4159999 17.7413843,19.4439999 17.3924612,19.2706153 C17.0446151,19.0972307 15.9224612,18.7310769 14.5913843,17.5496923 C13.5553844,16.6310769 12.8564613,15.496 12.6539998,15.1481539 C12.4504613,14.8013846 12.6324613,14.614 12.8058459,14.4406154 C12.9630767,14.2855385 13.154769,14.0356923 13.3281536,13.8332308 C13.5026151,13.6307693 13.560769,13.4864616 13.6770767,13.2549231 C13.7933844,13.0233847 13.7352305,12.8209231 13.6479998,12.6475385 C13.560769,12.4741539 12.8639998,10.7683078 12.5743075,10.0736924 C12.2910767,9.39738476 12.0035382,9.49000014 11.7903075,9.47815399 C11.586769,9.46846168 11.3541536,9.46630783 11.1226152,9.46630783 Z"></path></svg>