<?xml version="1.0" encoding="UTF-8"?> <svg xmlns="http://www.w3.org/2000/svg" width="100" height="100" viewBox="0 0 100 100" fill="none"> <path opacity="0.3" d="M47.1663 8.15216C48.1002 5.46548 51.8998 5.46548 52.8337 8.15216L61.0703 31.8478C61.4823 33.033 62.5883 33.8366 63.8429 33.8622L88.924 34.3733C91.7678 34.4313 92.9419 38.0449 90.6753 39.7633L70.6847 54.9191C69.6848 55.6772 69.2623 56.9775 69.6256 58.1785L76.89 82.19C77.7137 84.9125 74.6398 87.1459 72.305 85.5212L51.7135 71.1924C50.6836 70.4757 49.3164 70.4757 48.2865 71.1924L27.695 85.5212C25.3602 87.1459 22.2863 84.9125 23.11 82.19L30.3744 58.1785C30.7377 56.9775 30.3152 55.6772 29.3153 54.9191L9.32468 39.7633C7.05808 38.0449 8.23223 34.4313 11.076 34.3733L36.1571 33.8622C37.4117 33.8366 38.5177 33.033 38.9297 31.8478L47.1663 8.15216Z" fill="#F29304"></path> <mask id="mask0" mask-type="alpha" maskUnits="userSpaceOnUse" x="0" y="0" width="50" height="100"> <rect width="50" height="100" fill="#C4C4C4"></rect> </mask> <g mask="url(#mask0)"> <path d="M47.1663 8.15216C48.1002 5.46548 51.8998 5.46548 52.8337 8.15216L61.0703 31.8478C61.4823 33.033 62.5883 33.8366 63.8429 33.8622L88.924 34.3733C91.7678 34.4313 92.9419 38.0449 90.6753 39.7633L70.6847 54.9191C69.6848 55.6772 69.2623 56.9775 69.6256 58.1785L76.89 82.19C77.7137 84.9125 74.6398 87.1459 72.305 85.5212L51.7135 71.1924C50.6836 70.4757 49.3164 70.4757 48.2865 71.1924L27.695 85.5212C25.3602 87.1459 22.2863 84.9125 23.11 82.19L30.3744 58.1785C30.7377 56.9775 30.3152 55.6772 29.3153 54.9191L9.32468 39.7633C7.05808 38.0449 8.23223 34.4313 11.076 34.3733L36.1571 33.8622C37.4117 33.8366 38.5177 33.033 38.9297 31.8478L47.1663 8.15216Z" fill="#F29304"></path> </g> </svg> 