<?xml version="1.0" encoding="UTF-8"?> <svg xmlns="http://www.w3.org/2000/svg" width="84" height="81" viewBox="0 0 84 81" fill="none"> <path d="M39.1663 2.15216C40.1002 -0.53452 43.8998 -0.534518 44.8337 2.15216L53.0703 25.8478C53.4823 27.033 54.5883 27.8366 55.8429 27.8622L80.924 28.3733C83.7678 28.4313 84.9419 32.0449 82.6753 33.7633L62.6847 48.9191C61.6848 49.6772 61.2623 50.9775 61.6256 52.1785L68.89 76.19C69.7137 78.9125 66.6398 81.1459 64.305 79.5212L43.7135 65.1924C42.6836 64.4757 41.3164 64.4757 40.2865 65.1924L19.695 79.5212C17.3602 81.1459 14.2863 78.9125 15.11 76.19L22.3744 52.1785C22.7377 50.9775 22.3152 49.6772 21.3153 48.9191L1.32468 33.7633C-0.941915 32.0449 0.232228 28.4313 3.076 28.3733L28.1571 27.8622C29.4117 27.8366 30.5177 27.033 30.9297 25.8478L39.1663 2.15216Z" fill="#F29304"></path> </svg> 