<?xml version="1.0" encoding="UTF-8"?> <svg xmlns="http://www.w3.org/2000/svg" width="460" height="461" viewBox="0 0 460 461" fill="none"> <ellipse cx="153.452" cy="257.995" rx="76.5" ry="82" fill="#F29304"></ellipse> <path d="M206.952 405.995H95.9521V421.995H206.952V405.995Z" fill="#F29304"></path> <path d="M153.827 375.995H96.0771V390.995H153.827V375.995Z" fill="#F29304"></path> <path d="M212.577 375.995H179.327V390.995H212.577V375.995Z" fill="#F29304"></path> <path d="M153.317 176.364C111.047 176.364 76.6582 214.195 76.6582 260.688C76.6582 307.182 111.047 345.013 153.317 345.013C195.587 345.013 229.976 307.182 229.976 260.688C229.976 214.195 195.587 176.364 153.317 176.364ZM153.317 329.681C119.503 329.681 91.9899 298.734 91.9899 260.688C91.9899 222.643 119.503 191.696 153.317 191.696C187.131 191.696 214.644 222.643 214.644 260.688C214.644 298.734 187.131 329.681 153.317 329.681Z" fill="#353535"></path> <path d="M153.317 207.027C136.406 207.027 122.653 220.78 122.653 237.691C122.653 254.602 136.406 268.354 153.317 268.354C170.228 268.354 183.98 254.602 183.98 237.691C183.98 220.78 170.22 207.027 153.317 207.027ZM153.317 253.023C144.861 253.023 137.985 246.146 137.985 237.691C137.985 229.235 144.861 222.359 153.317 222.359C161.772 222.359 168.649 229.235 168.649 237.691C168.649 246.146 161.772 253.023 153.317 253.023Z" fill="#353535"></path> <path d="M452.286 444.669H444.62V421.672H413.957V391.008H398.625V276.02V230.025V203.854L421.837 180.642C441.477 161.009 452.286 134.907 452.286 107.133V84.3735V69.0418V45.2316C452.286 30.7738 445.295 17.5578 433.597 9.87661C415.843 -1.78317 395.896 -3.17836 378.855 6.00535C362.68 14.7444 352.63 31.548 352.63 49.8848V184.812L275.971 261.47V260.696C275.971 209.335 244.204 165.31 199.313 147.073V138.042C199.313 112.676 178.684 92.0471 153.317 92.0471C127.951 92.0471 107.322 112.676 107.322 138.042V147.073C75.8001 159.882 50.863 185.425 38.7433 217.284C14.8258 230.953 0 256.035 0 283.694C0 307.88 11.4528 330.356 30.6635 344.829V368.018V383.35V460.009H76.6587V444.677H229.976V460.009H275.971V383.35V368.018V326.515L352.63 249.857V276.028V391.016H337.298V421.679H306.635V444.677H298.969C294.737 444.677 291.303 448.104 291.303 452.343C291.303 456.582 294.737 460.009 298.969 460.009H306.635H444.62H452.286C456.518 460.009 459.952 456.582 459.952 452.343C459.952 448.104 456.518 444.669 452.286 444.669ZM383.293 260.689H367.962V245.357H383.293V260.689ZM406.291 69.0418V84.3735V94.4312C406.291 106.827 403.6 118.993 398.625 130.208V49.8771C398.625 47.769 400.342 46.0442 402.458 46.0442C404.574 46.0442 406.291 47.769 406.291 49.8771V69.0418ZM436.955 107.133C436.955 130.806 427.732 153.06 410.998 169.802L398.625 182.175V159.537C413.474 141.07 421.623 118.065 421.623 94.4312V84.3735H436.955V107.133ZM367.962 49.8771C367.962 37.1901 374.93 25.5457 386.137 19.4896C398.05 13.0579 412.286 14.2232 425.18 22.6863C432.447 27.4545 436.955 36.0939 436.955 45.2239V69.0341H421.623V49.8695C421.623 39.2982 413.022 30.7048 402.458 30.7048C391.895 30.7048 383.293 39.2982 383.293 49.8695V153.941V219.178V230.017H367.962V169.465V49.8771V49.8771ZM122.654 142.021V138.035C122.654 121.124 136.406 107.371 153.317 107.371C170.228 107.371 183.981 121.124 183.981 138.035V142.021C183.36 141.86 182.731 141.745 182.11 141.592C180.225 141.132 178.354 140.656 176.438 140.296C173.41 139.706 170.374 139.261 167.323 138.901C166.242 138.778 165.153 138.679 164.057 138.587C160.477 138.265 156.897 138.042 153.31 138.042C149.722 138.042 146.142 138.265 142.562 138.587C141.474 138.679 140.385 138.778 139.297 138.901C136.253 139.261 133.21 139.706 130.182 140.296C128.265 140.664 126.395 141.139 124.509 141.592C123.896 141.745 123.267 141.852 122.654 142.021ZM15.3317 283.686C15.3317 267.649 21.5258 252.647 32.2273 241.432C32.051 242.536 31.9743 243.64 31.821 244.744C31.6064 246.384 31.3687 248.009 31.2231 249.673C30.8858 253.337 30.6635 257.009 30.6635 260.689V324.239C20.8818 313.169 15.3317 298.819 15.3317 283.686ZM45.9952 444.669V383.342H61.327V444.669H45.9952ZM260.64 444.669H245.308V383.342H260.64V444.669ZM260.64 368.011H229.976V429.338H76.6587V368.011H45.9952V355.4V260.689C45.9952 257.377 46.1945 254.119 46.4935 250.884C46.6545 249.144 46.9228 247.411 47.1758 245.679C47.3674 244.345 47.5514 243.003 47.789 241.685C48.2106 239.385 48.7089 237.093 49.2915 234.816C49.4449 234.211 49.5982 233.605 49.7592 232.999C50.4567 230.416 51.2387 227.84 52.1356 225.28C62.8985 194.609 87.1763 170.316 117.832 159.522C120.446 158.602 123.083 157.805 125.728 157.092C126.219 156.962 126.717 156.839 127.207 156.709C129.653 156.088 132.106 155.551 134.567 155.114C135.494 154.953 136.437 154.823 137.38 154.685C139.542 154.355 141.696 154.041 143.865 153.842C145.537 153.696 147.238 153.658 148.933 153.589C151.869 153.466 154.805 153.466 157.741 153.589C159.435 153.658 161.137 153.696 162.808 153.842C164.97 154.041 167.131 154.348 169.293 154.685C170.228 154.823 171.179 154.953 172.106 155.114C174.567 155.559 177.02 156.095 179.458 156.709C179.956 156.831 180.447 156.962 180.938 157.092C183.582 157.805 186.219 158.602 188.833 159.522C230.597 174.225 260.655 213.957 260.655 260.689V276.795V341.839V368.011H260.64ZM275.971 283.142L352.63 206.483V228.17L275.971 304.829V283.142ZM367.962 276.02H383.293V391.008H367.962V276.02ZM352.63 406.34H398.625V421.672H352.63V406.34ZM321.967 444.669V437.004H337.298H413.957H429.289V444.669H321.967Z" fill="#353535"></path> </svg> 