<?xml version="1.0" encoding="UTF-8"?> <svg xmlns="http://www.w3.org/2000/svg" width="39" height="68" viewBox="0 0 39 68" fill="none"> <path d="M34.5484 9.87097C33.9572 9.87097 33.4034 10.0168 32.9032 10.2559V7.67742C32.9032 5.25794 30.9356 3.29032 28.5161 3.29032C27.6946 3.29032 26.9335 3.53161 26.2754 3.92535C26.0418 1.72632 24.197 0 21.9355 0C19.6739 0 17.8292 1.72632 17.5955 3.92535C16.9375 3.53161 16.1763 3.29032 15.3548 3.29032C12.9354 3.29032 10.9677 5.25794 10.9677 7.67742V24.2837L8.52523 19.8889C7.72458 18.4455 6.20116 17.5484 4.54832 17.5484C2.04 17.5484 0 19.5895 0 22.0978V22.3424C0 22.9478 0.117355 23.5357 0.349871 24.0917L4.95852 35.1527C5.38077 36.1672 5.87103 37.1631 6.41394 38.1118L6.66181 38.5461C8.76103 42.2192 9.87097 46.3979 9.87097 50.6293V60.3226H12.0645V50.6293C12.0645 46.0163 10.8548 41.4625 8.5669 37.4592L8.31903 37.0249C7.8211 36.153 7.37142 35.2394 6.98316 34.3093L2.37452 23.2472C2.25497 22.9599 2.19355 22.655 2.19355 22.3424V22.0978C2.19355 20.7981 3.24974 19.7419 4.54832 19.7419C5.40381 19.7419 6.19348 20.2059 6.60806 20.9539L10.9677 28.8002V29.4352L9.928 32.5566L12.0075 33.2509L13.1613 29.7906V7.67742C13.1613 6.46768 14.1451 5.48387 15.3548 5.48387C16.5646 5.48387 17.5484 6.46768 17.5484 7.67742V25.2258V28.5161H19.7419V25.2258V7.67742V4.3871C19.7419 3.17735 20.7257 2.19355 21.9355 2.19355C23.1452 2.19355 24.129 3.17735 24.129 4.3871V7.67742V25.2258V28.5161H26.3226V25.2258V7.67742C26.3226 6.46768 27.3064 5.48387 28.5161 5.48387C29.7259 5.48387 30.7097 6.46768 30.7097 7.67742V13.7097V24.129V28.5161H32.9032V24.129V13.7097C32.9032 12.8026 33.6414 12.0645 34.5484 12.0645C35.4554 12.0645 36.1936 12.8026 36.1936 13.7097V28.5995C36.1936 32.028 35.4872 35.3567 34.0943 38.4902C32.5764 41.9066 31.8065 45.5348 31.8065 49.2726V60.3226H34V49.2726C34 45.843 34.7063 42.5154 36.0992 39.3808C37.6172 35.9643 38.3871 32.3362 38.3871 28.5995V13.7097C38.3871 11.5929 36.6652 9.87097 34.5484 9.87097Z" fill="#353535"></path> <path d="M32.9207 35.4379L30.8368 34.7568C30.6218 35.4171 30.3685 36.073 30.0449 36.8023L32.0904 37.5997C32.403 36.8945 32.6827 36.1673 32.9207 35.4379Z" fill="#353535"></path> <path d="M27.4189 49.2726V54.8387H29.6125V49.2726C29.6125 46.0426 30.1466 42.8696 31.2006 39.8447L29.1288 39.123C27.9937 42.3805 27.4189 45.7958 27.4189 49.2726Z" fill="#353535"></path> <path d="M33.9998 68H9.87079C8.66105 68 7.67725 67.0162 7.67725 65.8065V61.4194C7.67725 60.2096 8.66105 59.2258 9.87079 59.2258H33.9998C35.2096 59.2258 36.1934 60.2096 36.1934 61.4194V65.8065C36.1934 67.0162 35.2096 68 33.9998 68Z" fill="#F29304"></path> </svg> 