<?xml version="1.0" encoding="UTF-8"?> <svg xmlns="http://www.w3.org/2000/svg" width="512" height="512" viewBox="0 0 512 512" fill="none"> <path d="M432.257 0H79.743C35.773 0 0 35.772 0 79.743V432.257C0 476.228 35.773 512 79.743 512H432.256C476.227 512 512 476.228 512 432.257V79.743C512 35.772 476.227 0 432.257 0ZM497 432.257C497 467.957 467.956 497 432.257 497H79.743C44.044 497 15 467.957 15 432.257V79.743C15 44.043 44.044 15 79.743 15H432.256C467.956 15 497 44.043 497 79.743V432.257Z" fill="#353535"></path> <path d="M286.5 311L275 289.5L291 261V234H323.5L382.5 266.5L391.5 306L360 357.5L318.5 373.5L291 363.5V342.5L286.5 311Z" fill="#F29304"></path> <path d="M216.5 260L180.761 248.364L153 237L123.011 249.455L114.6 280.847L130.722 346.249L166.547 365.165L221.5 355.5L250.64 312.123L248.099 282.972L227.814 277.537L216.5 260Z" fill="#F29304"></path> <path d="M277.778 204.173L265.568 225.278L232.915 226.702L214.97 238.933L196.84 213.314L189.362 146.045L218.187 117.577L278.555 117.202L296.29 124.62L314.026 144.037L320.022 172.678L302.176 183.746L277.778 204.173Z" fill="#F29304"></path> <path d="M432.257 35.6101H79.7434C55.4084 35.6101 35.6094 55.4081 35.6094 79.7441V102.47C35.6094 106.612 38.9674 109.97 43.1094 109.97C47.2514 109.97 50.6094 106.612 50.6094 102.47V79.7441C50.6094 63.6801 63.6784 50.6101 79.7434 50.6101H432.256C448.32 50.6101 461.39 63.6791 461.39 79.7441V432.257C461.39 448.322 448.321 461.391 432.256 461.391H79.7434C63.6794 461.391 50.6094 448.322 50.6094 432.257V137.532C50.6094 133.39 47.2514 130.032 43.1094 130.032C38.9674 130.032 35.6094 133.39 35.6094 137.532V432.257C35.6094 456.593 55.4074 476.391 79.7434 476.391H432.256C456.592 476.391 476.39 456.593 476.39 432.257V79.7441C476.39 55.4081 456.593 35.6101 432.257 35.6101V35.6101Z" fill="#353535"></path> <path d="M376.624 246.164C355.66 231.37 320.388 225.731 292.14 232.176C289.228 227.715 285.515 223.827 281.202 220.715C286.825 209.109 296.619 200.558 313.562 192.159C322.475 187.739 333.569 182.238 333.569 167.654C333.569 127.823 293.478 103.168 256.334 103.168C213.747 103.168 179.1 132.096 179.1 167.654C179.1 185.314 187.752 208.86 201.142 227.639C205.443 233.669 210.013 238.977 214.767 243.498C213.836 246.659 213.249 249.966 213.072 253.381C201.213 252.517 190.035 247.174 176.204 236.004L176.018 235.854C168.363 229.668 158.835 221.967 145.581 228.064C109.393 244.704 103.742 291.429 119.26 325.176C135.664 360.853 175.382 384.378 210.114 368.405C234.604 357.144 258.741 326.168 266.009 297.523C268.177 297.008 270.281 296.333 272.309 295.503C279.397 306.079 282.684 318.679 279.073 341.896C277.545 351.727 275.643 363.962 287.56 372.373C319.193 394.696 362.566 377.926 384.779 346.449C395.896 330.696 401.808 311.282 401 293.187C400.114 273.331 391.457 256.631 376.624 246.164V246.164ZM213.355 218.929C201.838 202.777 194.101 182.171 194.101 167.653C194.101 140.366 222.019 118.167 256.335 118.167C294.776 118.167 318.57 143.854 318.57 167.653C318.57 172.311 316.223 174.096 306.9 178.719C286.892 188.638 274.761 199.516 267.685 214.189C263.987 213.151 260.094 212.584 256.068 212.584C242.18 212.584 229.813 219.2 221.935 229.44C218.991 226.312 216.12 222.806 213.355 218.929ZM203.848 354.776C176.9 367.171 145.758 346.897 132.889 318.908C116.829 283.982 130.226 251.633 151.849 241.69C156.084 239.744 158.647 241.1 166.591 247.519L166.779 247.67C184.113 261.67 198.891 268.115 214.975 268.496C219.89 284.169 233.545 296.003 250.202 298.283C242.29 322.99 220.802 346.98 203.848 354.776ZM256.068 283.694C240.598 283.694 228.013 271.109 228.013 255.639C228.013 240.169 240.598 227.584 256.068 227.584C271.537 227.584 284.123 240.169 284.123 255.639C284.123 271.261 271.352 283.694 256.068 283.694ZM372.525 337.799C354.851 362.844 320.573 377.31 296.211 360.116C292.404 357.43 292.299 354.484 293.898 344.199C297.665 319.971 295.091 302.947 284.982 287.514C296.428 277.122 301.477 261.486 298.084 246.267C321.568 241.794 351.384 246.712 367.976 258.42C378.934 266.153 385.341 278.738 386.017 293.855C386.679 308.693 381.762 324.71 372.525 337.799V337.799Z" fill="#353535"></path> <path d="M387.667 423.5C387.667 439.766 400.9 453 417.167 453C433.434 453 446.667 439.766 446.667 423.5C446.667 407.234 433.434 394 417.167 394C400.9 394 387.667 407.234 387.667 423.5ZM431.667 423.5C431.667 431.495 425.162 438 417.167 438C409.172 438 402.667 431.495 402.667 423.5C402.667 415.505 409.172 409 417.167 409C425.162 409 431.667 415.505 431.667 423.5Z" fill="#353535"></path> <path d="M389.358 141.267C386.131 143.865 385.622 148.586 388.219 151.812C412.691 182.211 425.626 218.951 425.626 258.06C425.626 351.555 349.563 427.619 256.067 427.619C216.959 427.619 180.219 414.683 149.82 390.211C146.595 387.614 141.873 388.124 139.275 391.35C136.678 394.577 137.188 399.298 140.414 401.895C173.035 428.156 214.108 442.619 256.067 442.619C357.833 442.619 440.626 359.826 440.626 258.06C440.626 216.1 426.163 175.027 399.902 142.406C397.306 139.179 392.585 138.67 389.358 141.267V141.267Z" fill="#353535"></path> <path d="M374.299 116.336C341.22 88.713 299.231 73.5 256.068 73.5C154.302 73.5 71.5088 156.293 71.5088 258.06C71.5088 301.224 86.7218 343.212 114.345 376.29C115.828 378.066 117.959 378.982 120.106 378.982C121.801 378.982 123.506 378.41 124.91 377.239C128.089 374.584 128.514 369.854 125.859 366.675C100.484 336.289 86.5088 297.716 86.5088 258.06C86.5088 164.564 162.573 88.5 256.068 88.5C295.724 88.5 334.298 102.475 364.684 127.85C367.864 130.506 372.593 130.079 375.248 126.901C377.903 123.721 377.477 118.992 374.299 116.336Z" fill="#353535"></path> </svg> 